<svg xmlns="http://www.w3.org/2000/svg" xmlns:xlink="http://www.w3.org/1999/xlink" width="1366" zoomAndPan="magnify" viewBox="0 0 1024.5 576" height="768" preserveAspectRatio="xMidYMid meet" version="1.0"><defs><clipPath id="9bec174d90"><path d="M 0 0.140625 L 1024 0.140625 L 1024 575.859375 L 0 575.859375 Z M 0 0.140625 " clip-rule="nonzero"/></clipPath></defs><g clip-path="url(#9bec174d90)"><path fill="#ffffff" d="M 0 0.140625 L 1024.5 0.140625 L 1024.5 583.640625 L 0 583.640625 Z M 0 0.140625 " fill-opacity="1" fill-rule="nonzero"/><path fill="#ffffff" d="M 0 0.140625 L 1024.5 0.140625 L 1024.5 576.140625 L 0 576.140625 Z M 0 0.140625 " fill-opacity="1" fill-rule="nonzero"/><path fill="#ffffff" d="M 0 0.140625 L 1024.5 0.140625 L 1024.5 576.140625 L 0 576.140625 Z M 0 0.140625 " fill-opacity="1" fill-rule="nonzero"/><path fill="#bacbcb" d="M -138.753906 -64.359375 C -153.355469 -64.007812 -176.21875 -62.445312 -192.039062 -60.722656 L -196.183594 -60.269531 L -196.183594 642.003906 L 476.355469 642.003906 C 1125.96875 642.003906 1148.894531 641.976562 1148.894531 641.269531 C 1148.894531 639.199219 1130.355469 601.019531 1122.726562 587.386719 C 1100.5 547.660156 1077.851562 520.382812 1049.320312 498.96875 C 1020.304688 477.195312 984.054688 458.871094 948.882812 448.203125 C 930.273438 442.5625 908.949219 438.367188 885.21875 435.683594 C 871.796875 434.167969 861.148438 433.320312 818.691406 430.390625 C 773.949219 427.300781 745.09375 420.992188 715.164062 407.757812 C 695.847656 399.214844 672.441406 383.011719 648.839844 361.84375 C 626.230469 341.5625 606.179688 320.609375 575.84375 285.554688 C 546.472656 251.609375 537.160156 241.367188 524.898438 229.515625 C 501.417969 206.828125 476.09375 188.851562 452.902344 178.410156 C 434.285156 170.03125 412.007812 164.0625 387.789062 160.960938 C 364.957031 158.039062 345.863281 157.015625 296.59375 156.070312 C 266.207031 155.484375 250.175781 154.261719 230.070312 150.984375 C 193.007812 144.949219 164.054688 131 128.957031 102.265625 C 108.195312 85.265625 92.359375 69.660156 62.65625 36.925781 C 36.597656 8.210938 23.355469 -4.777344 5.328125 -19.292969 C -26.523438 -44.933594 -58.128906 -58.953125 -93.171875 -62.984375 C -104.953125 -64.335938 -120.386719 -64.804688 -138.757812 -64.359375 Z M -138.753906 -64.359375 " fill-opacity="1" fill-rule="nonzero"/></g></svg>