<svg xmlns="http://www.w3.org/2000/svg" xmlns:xlink="http://www.w3.org/1999/xlink" width="1366" zoomAndPan="magnify" viewBox="0 0 1024.5 576" height="768" preserveAspectRatio="xMidYMid meet" version="1.0"><defs><clipPath id="4af27e2c07"><path d="M 0 0.140625 L 1024 0.140625 L 1024 575.859375 L 0 575.859375 Z M 0 0.140625 " clip-rule="nonzero"/></clipPath></defs><g clip-path="url(#4af27e2c07)"><path fill="#ffffff" d="M 0 0.140625 L 1024.5 0.140625 L 1024.5 583.640625 L 0 583.640625 Z M 0 0.140625 " fill-opacity="1" fill-rule="nonzero"/><path fill="#ffffff" d="M 0 0.140625 L 1024.5 0.140625 L 1024.5 576.140625 L 0 576.140625 Z M 0 0.140625 " fill-opacity="1" fill-rule="nonzero"/><path fill="#ffffff" d="M 0 0.140625 L 1024.5 0.140625 L 1024.5 576.140625 L 0 576.140625 Z M 0 0.140625 " fill-opacity="1" fill-rule="nonzero"/><path fill="#eef7f7" d="M 119.039062 -233.273438 C 25.726562 -141.945312 -25.832031 59.878906 -3.878906 190.191406 C 26.242188 369.011719 179.402344 442.714844 326.136719 506.339844 C 549.789062 603.316406 752.804688 714.515625 1009.199219 670.507812 C 1231.875 632.292969 1314.414062 451.046875 1172.589844 280.34375 C 1090.917969 182.039062 975.660156 150.101562 884.085938 57.339844 C 813.644531 -14.015625 758.605469 -112.25 678.902344 -176.953125 C 553.546875 -278.710938 265.589844 -354.929688 119.039062 -233.273438 " fill-opacity="1" fill-rule="nonzero"/></g></svg>