<svg xmlns="http://www.w3.org/2000/svg" xmlns:xlink="http://www.w3.org/1999/xlink" width="500" zoomAndPan="magnify" viewBox="0 0 375 374.999991" height="500" preserveAspectRatio="xMidYMid meet" version="1.0"><defs><clipPath id="03416dc0c5"><path d="M 24 28 L 347 28 L 347 350.25 L 24 350.25 Z M 24 28 " clip-rule="nonzero"/></clipPath><clipPath id="975402083e"><path d="M 360 199 L 370.5 199 L 370.5 210 L 360 210 Z M 360 199 " clip-rule="nonzero"/></clipPath></defs><path fill="#36b7c4" d="M 320.363281 175.125 C 320.363281 249.746094 259.894531 310.234375 185.304688 310.234375 C 110.710938 310.234375 50.246094 249.746094 50.246094 175.125 C 50.246094 100.507812 110.710938 40.011719 185.304688 40.011719 C 259.894531 40.011719 320.363281 100.507812 320.363281 175.125 " fill-opacity="1" fill-rule="nonzero"/><path fill="#2c96a2" d="M 190.199219 310.136719 L 132.113281 252.023438 C 125.441406 246.886719 119.464844 240.910156 114.332031 234.238281 C 101.78125 217.929688 94.292969 197.527344 94.292969 175.398438 C 94.292969 168.46875 95.039062 161.71875 96.429688 155.199219 C 104.351562 118.078125 133.628906 88.789062 170.742188 80.863281 C 177.257812 79.46875 184.003906 78.722656 190.929688 78.722656 C 191.207031 78.722656 191.484375 78.726562 191.757812 78.730469 L 192.082031 78.738281 L 192.132812 78.738281 C 194.507812 78.765625 196.417969 80.699219 196.421875 83.082031 L 317.269531 203.972656 C 304.390625 263.191406 252.710938 307.90625 190.199219 310.136719 " fill-opacity="1" fill-rule="nonzero"/><path fill="#ffffff" d="M 276.3125 210.953125 L 229.09375 221.535156 L 246.4375 234.574219 C 231.617188 248.578125 211.992188 256.542969 190.929688 256.542969 C 146.207031 256.542969 109.820312 220.140625 109.820312 175.398438 C 109.820312 130.65625 146.207031 94.257812 190.929688 94.257812 C 191.15625 94.257812 191.382812 94.261719 191.613281 94.261719 L 192.023438 94.269531 C 193.175781 94.300781 194.304688 93.832031 195.132812 93.015625 C 195.957031 92.199219 196.421875 91.085938 196.421875 89.921875 L 196.421875 83.085938 C 196.421875 80.703125 194.511719 78.765625 192.132812 78.738281 L 191.757812 78.730469 C 191.484375 78.726562 191.207031 78.722656 190.929688 78.722656 C 137.644531 78.722656 94.292969 122.09375 94.292969 175.398438 C 94.292969 228.707031 137.644531 272.070312 190.929688 272.070312 C 216.777344 272.070312 241.101562 261.71875 258.964844 243.988281 L 276.3125 257.027344 L 276.3125 210.953125 " fill-opacity="1" fill-rule="nonzero"/><path fill="#ffffff" d="M 209.53125 223.613281 C 214.945312 218.824219 219.484375 211.84375 222.671875 203.433594 L 235.414062 203.433594 C 229.246094 212.683594 220.183594 219.851562 209.53125 223.613281 Z M 149.222656 203.433594 L 161.964844 203.433594 C 165.152344 211.84375 169.6875 218.824219 175.101562 223.613281 C 164.453125 219.851562 155.394531 212.683594 149.222656 203.433594 Z M 175.101562 125.953125 C 169.929688 130.527344 165.554688 137.109375 162.398438 145.023438 L 149.984375 145.023438 C 156.125 136.308594 164.882812 129.566406 175.101562 125.953125 Z M 234.65625 145.023438 L 222.246094 145.023438 C 219.082031 137.109375 214.710938 130.527344 209.53125 125.949219 C 219.757812 129.566406 228.515625 136.308594 234.65625 145.023438 Z M 227.644531 172.359375 C 227.421875 164.308594 226.125 156.695312 223.96875 149.875 L 237.683594 149.875 C 241.390625 156.601562 243.648438 164.238281 244.019531 172.359375 Z M 227.644531 177.207031 L 244.019531 177.207031 C 243.667969 184.882812 241.632812 192.128906 238.277344 198.585938 L 224.3125 198.585938 C 226.261719 192.046875 227.4375 184.824219 227.644531 177.207031 Z M 194.742188 198.585938 L 194.742188 177.207031 L 222.390625 177.207031 C 222.1875 184.882812 221 192.128906 219.050781 198.585938 Z M 194.742188 226.398438 L 194.742188 203.433594 L 217.386719 203.433594 C 212.402344 216.273438 204.183594 225.09375 194.742188 226.398438 Z M 189.890625 203.433594 L 189.890625 226.398438 C 180.453125 225.09375 172.234375 216.273438 167.253906 203.433594 Z M 162.246094 177.207031 L 189.890625 177.207031 L 189.890625 198.585938 L 165.585938 198.585938 C 163.636719 192.128906 162.453125 184.882812 162.246094 177.207031 Z M 156.996094 172.359375 L 140.617188 172.359375 C 140.988281 164.238281 143.246094 156.601562 146.949219 149.875 L 160.667969 149.875 C 158.511719 156.695312 157.214844 164.308594 156.996094 172.359375 Z M 189.890625 149.875 L 189.890625 172.359375 L 162.246094 172.359375 C 162.46875 164.238281 163.777344 156.601562 165.933594 149.875 Z M 189.890625 123.167969 L 189.890625 145.023438 L 167.695312 145.023438 C 172.714844 132.78125 180.730469 124.429688 189.890625 123.167969 Z M 218.707031 149.875 C 220.863281 156.601562 222.171875 164.238281 222.390625 172.359375 L 194.742188 172.359375 L 194.742188 149.875 Z M 194.742188 145.023438 L 194.742188 123.167969 C 203.90625 124.429688 211.925781 132.78125 216.941406 145.023438 Z M 140.617188 177.207031 L 156.996094 177.207031 C 157.203125 184.824219 158.378906 192.046875 160.324219 198.585938 L 146.359375 198.585938 C 143.003906 192.128906 140.96875 184.882812 140.617188 177.207031 Z M 192.316406 118.859375 C 161.492188 118.859375 136.417969 143.945312 136.417969 174.78125 C 136.417969 205.617188 161.492188 230.703125 192.316406 230.703125 C 223.144531 230.703125 248.222656 205.617188 248.222656 174.78125 C 248.222656 143.945312 223.144531 118.859375 192.316406 118.859375 " fill-opacity="1" fill-rule="nonzero"/><g clip-path="url(#03416dc0c5)"><path fill="#dad9d9" d="M 196.046875 30.394531 C 194.734375 30.3125 193.414062 30.246094 192.085938 30.191406 L 192.164062 28.195312 C 193.503906 28.246094 194.84375 28.316406 196.175781 28.398438 Z M 175.535156 30.402344 L 175.40625 28.414062 C 179.316406 28.15625 183.304688 28.050781 187.234375 28.078125 L 187.21875 30.082031 C 183.332031 30.039062 179.398438 30.15625 175.535156 30.402344 Z M 166.734375 31.210938 L 166.496094 29.230469 C 168.117188 29.035156 169.765625 28.859375 171.402344 28.714844 L 171.578125 30.707031 C 169.964844 30.851562 168.335938 31.019531 166.734375 31.210938 Z M 212.492188 32.292969 C 210.890625 32.023438 209.273438 31.78125 207.675781 31.558594 L 207.949219 29.582031 C 209.5625 29.800781 211.203125 30.054688 212.824219 30.324219 Z M 151.308594 33.839844 L 150.875 31.886719 C 152.183594 31.597656 153.492188 31.324219 154.808594 31.070312 L 155.191406 33.027344 C 153.894531 33.285156 152.597656 33.550781 151.308594 33.839844 Z M 227.773438 35.65625 C 224.03125 34.640625 220.207031 33.746094 216.394531 33.003906 L 216.777344 31.042969 C 220.636719 31.792969 224.511719 32.703125 228.300781 33.730469 Z M 236.246094 38.226562 C 234.988281 37.804688 233.71875 37.402344 232.449219 37.011719 L 233.035156 35.101562 C 234.324219 35.492188 235.601562 35.910156 236.878906 36.332031 Z M 135.363281 38.265625 L 134.726562 36.367188 C 138.449219 35.125 142.269531 33.996094 146.078125 33.03125 L 146.570312 34.96875 C 142.808594 35.921875 139.039062 37.03125 135.363281 38.265625 Z M 127.0625 41.304688 L 126.324219 39.449219 C 127.839844 38.839844 129.394531 38.25 130.933594 37.691406 L 131.613281 39.566406 C 130.09375 40.125 128.566406 40.703125 127.0625 41.304688 Z M 251.671875 44.296875 C 250.191406 43.621094 248.6875 42.964844 247.195312 42.34375 L 247.96875 40.5 C 249.476562 41.128906 250.996094 41.792969 252.496094 42.480469 Z M 112.847656 47.800781 L 111.929688 46.023438 C 113.113281 45.410156 114.308594 44.8125 115.511719 44.222656 L 116.386719 46.019531 C 115.199219 46.601562 114.019531 47.191406 112.847656 47.800781 Z M 265.589844 51.488281 C 262.230469 49.539062 258.757812 47.683594 255.265625 45.992188 L 256.144531 44.195312 C 259.671875 45.914062 263.191406 47.789062 266.589844 49.761719 Z M 273.113281 56.148438 C 272.007812 55.417969 270.894531 54.703125 269.769531 54 L 270.824219 52.3125 C 271.964844 53.019531 273.09375 53.742188 274.210938 54.476562 Z M 98.582031 56.160156 L 97.484375 54.492188 C 100.765625 52.332031 104.164062 50.261719 107.597656 48.355469 L 108.566406 50.097656 C 105.179688 51.984375 101.824219 54.03125 98.582031 56.160156 Z M 91.34375 61.214844 L 90.15625 59.605469 C 91.464844 58.640625 92.8125 57.671875 94.160156 56.738281 L 95.300781 58.375 C 93.96875 59.300781 92.636719 60.257812 91.34375 61.214844 Z M 286.457031 65.957031 C 285.207031 64.933594 283.921875 63.910156 282.640625 62.929688 L 283.859375 61.34375 C 285.152344 62.34375 286.457031 63.371094 287.722656 64.414062 Z M 79.242188 71.136719 L 77.902344 69.652344 C 78.894531 68.753906 79.898438 67.871094 80.914062 66.996094 L 82.214844 68.507812 C 81.214844 69.371094 80.222656 70.246094 79.242188 71.136719 Z M 298.078125 76.453125 C 295.324219 73.714844 292.4375 71.039062 289.5 68.507812 L 290.800781 66.996094 C 293.777344 69.554688 296.699219 72.261719 299.488281 75.039062 Z M 67.558594 82.859375 L 66.070312 81.527344 C 68.695312 78.601562 71.46875 75.742188 74.300781 73.015625 L 75.679688 74.457031 C 72.886719 77.144531 70.152344 79.976562 67.558594 82.859375 Z M 304.160156 82.863281 C 303.277344 81.878906 302.378906 80.910156 301.472656 79.949219 L 302.921875 78.574219 C 303.84375 79.546875 304.746094 80.53125 305.644531 81.53125 Z M 61.832031 89.601562 L 60.273438 88.347656 C 61.296875 87.074219 62.359375 85.792969 63.421875 84.554688 L 64.945312 85.847656 C 63.890625 87.082031 62.84375 88.339844 61.832031 89.601562 Z M 314.5625 95.734375 C 313.617188 94.425781 312.636719 93.117188 311.644531 91.839844 L 313.226562 90.613281 C 314.226562 91.914062 315.222656 93.238281 316.183594 94.558594 Z M 52.636719 102.28125 L 50.964844 101.191406 C 51.699219 100.066406 52.449219 98.953125 53.207031 97.847656 L 54.851562 98.980469 C 54.101562 100.070312 53.359375 101.171875 52.636719 102.28125 Z M 323.125 108.824219 C 321.167969 105.484375 319.058594 102.164062 316.851562 98.96875 L 318.496094 97.835938 C 320.730469 101.074219 322.867188 104.429688 324.847656 107.8125 Z M 327.371094 116.558594 C 326.765625 115.382812 326.152344 114.214844 325.519531 113.058594 L 327.273438 112.101562 C 327.910156 113.273438 328.535156 114.453125 329.148438 115.644531 Z M 44.316406 116.609375 L 42.539062 115.695312 C 44.335938 112.203125 46.28125 108.722656 48.328125 105.363281 L 50.035156 106.40625 C 48.011719 109.726562 46.089844 113.15625 44.316406 116.609375 Z M 40.496094 124.601562 L 38.671875 123.792969 C 39.335938 122.292969 40.035156 120.789062 40.746094 119.304688 L 42.546875 120.171875 C 41.84375 121.628906 41.152344 123.121094 40.496094 124.601562 Z M 334.140625 131.632812 C 333.558594 130.128906 332.945312 128.613281 332.316406 127.136719 L 334.15625 126.355469 C 334.789062 127.851562 335.410156 129.386719 336.003906 130.914062 Z M 34.847656 139.234375 L 32.953125 138.605469 C 33.375 137.324219 33.8125 136.054688 34.265625 134.792969 L 36.144531 135.46875 C 35.699219 136.710938 35.265625 137.972656 34.847656 139.234375 Z M 339.070312 146.492188 C 338.035156 142.753906 336.839844 139.003906 335.53125 135.351562 L 337.410156 134.679688 C 338.738281 138.375 339.945312 142.171875 340.992188 145.960938 Z M 341.195312 155.078125 C 340.910156 153.777344 340.609375 152.492188 340.296875 151.207031 L 342.238281 150.734375 C 342.554688 152.03125 342.859375 153.335938 343.148438 154.648438 Z M 30.496094 155.203125 L 28.542969 154.78125 C 29.375 150.9375 30.363281 147.074219 31.476562 143.316406 L 33.394531 143.882812 C 32.296875 147.597656 31.316406 151.40625 30.496094 155.203125 Z M 28.859375 163.894531 L 26.886719 163.578125 C 27.144531 161.957031 27.433594 160.320312 27.738281 158.71875 L 29.703125 159.09375 C 29.398438 160.675781 29.113281 162.289062 28.859375 163.894531 Z M 343.871094 171.410156 C 343.691406 169.804688 343.488281 168.179688 343.257812 166.578125 L 345.238281 166.296875 C 345.464844 167.917969 345.675781 169.5625 345.855469 171.191406 Z M 27.160156 179.457031 L 25.167969 179.335938 C 25.246094 177.992188 25.34375 176.660156 25.457031 175.324219 L 27.445312 175.492188 C 27.335938 176.808594 27.238281 178.128906 27.160156 179.457031 Z M 344.828125 187.039062 C 344.777344 183.152344 344.589844 179.222656 344.257812 175.359375 L 346.246094 175.191406 C 346.578125 179.101562 346.777344 183.074219 346.824219 187.015625 Z M 25.023438 196.097656 C 24.925781 193.78125 24.875 191.4375 24.875 189.121094 C 24.875 187.507812 24.898438 185.875 24.945312 184.257812 L 26.945312 184.320312 C 26.894531 185.914062 26.871094 187.527344 26.871094 189.121094 C 26.871094 191.40625 26.917969 193.726562 27.015625 196.011719 Z M 346.414062 200.945312 L 344.421875 200.800781 C 344.699219 196.9375 344.84375 193.007812 344.84375 189.121094 L 346.84375 189.121094 C 346.84375 193.058594 346.699219 197.035156 346.414062 200.945312 Z M 25.648438 205.027344 C 25.488281 203.40625 25.351562 201.746094 25.242188 200.109375 L 27.234375 199.980469 C 27.347656 201.589844 27.476562 203.226562 27.636719 204.832031 Z M 345.519531 209.855469 L 343.539062 209.597656 C 343.707031 208.289062 343.859375 206.972656 343.992188 205.65625 L 345.984375 205.859375 C 345.84375 207.195312 345.691406 208.523438 345.519531 209.855469 Z M 27.972656 220.707031 C 27.707031 219.394531 27.464844 218.074219 27.234375 216.757812 L 29.203125 216.410156 C 29.429688 217.722656 29.671875 219.023438 29.925781 220.316406 Z M 342.519531 226.34375 L 340.574219 225.882812 C 340.945312 224.320312 341.296875 222.71875 341.621094 221.125 L 343.578125 221.53125 C 343.25 223.140625 342.890625 224.761719 342.519531 226.34375 Z M 32.09375 236.957031 C 30.929688 233.199219 29.890625 229.355469 29.007812 225.527344 L 30.953125 225.078125 C 31.828125 228.855469 32.851562 232.65625 34 236.363281 Z M 338.109375 241.570312 L 336.222656 240.921875 C 337.484375 237.25 338.625 233.484375 339.613281 229.738281 L 341.542969 230.246094 C 340.546875 234.042969 339.390625 237.851562 338.109375 241.570312 Z M 34.988281 245.429688 C 34.417969 243.890625 33.855469 242.324219 33.335938 240.78125 L 35.226562 240.140625 C 35.742188 241.667969 36.289062 243.207031 36.859375 244.730469 Z M 334.945312 249.976562 L 333.101562 249.21875 C 333.601562 247.996094 334.085938 246.757812 334.558594 245.515625 L 336.425781 246.226562 C 335.949219 247.484375 335.457031 248.730469 334.945312 249.976562 Z M 41.246094 259.964844 C 40.660156 258.769531 40.089844 257.558594 39.53125 256.347656 L 41.34375 255.511719 C 41.894531 256.710938 42.460938 257.898438 43.039062 259.085938 Z M 327.800781 265.160156 L 326.039062 264.214844 C 326.8125 262.777344 327.566406 261.316406 328.28125 259.882812 L 330.066406 260.769531 C 329.34375 262.230469 328.578125 263.703125 327.800781 265.160156 Z M 49.394531 274.59375 C 47.304688 271.269531 45.316406 267.820312 43.484375 264.347656 L 45.246094 263.417969 C 47.058594 266.84375 49.023438 270.25 51.089844 273.535156 Z M 319.621094 278.761719 L 317.960938 277.640625 C 320.125 274.425781 322.191406 271.078125 324.117188 267.699219 L 325.851562 268.6875 C 323.90625 272.105469 321.804688 275.496094 319.621094 278.761719 Z M 54.351562 282.027344 C 53.402344 280.691406 52.464844 279.324219 51.570312 277.964844 L 53.234375 276.863281 C 54.121094 278.199219 55.042969 279.554688 55.984375 280.878906 Z M 314.421875 286.054688 L 312.832031 284.855469 C 313.625 283.796875 314.410156 282.726562 315.183594 281.652344 L 316.808594 282.808594 C 316.027344 283.902344 315.234375 284.984375 314.421875 286.054688 Z M 64.125 294.503906 C 63.246094 293.492188 62.382812 292.46875 61.53125 291.4375 L 63.074219 290.167969 C 63.917969 291.1875 64.765625 292.195312 65.632812 293.195312 Z M 303.644531 298.898438 L 302.183594 297.535156 C 303.292969 296.347656 304.390625 295.128906 305.449219 293.921875 L 306.949219 295.238281 C 305.878906 296.460938 304.765625 297.691406 303.644531 298.898438 Z M 75.738281 306.589844 C 72.867188 303.898438 70.066406 301.070312 67.40625 298.179688 L 68.878906 296.828125 C 71.503906 299.6875 74.269531 302.476562 77.101562 305.132812 Z M 292.285156 309.953125 L 290.964844 308.453125 C 293.875 305.882812 296.726562 303.175781 299.441406 300.40625 L 300.867188 301.804688 C 298.121094 304.609375 295.230469 307.351562 292.285156 309.953125 Z M 82.429688 312.535156 C 81.175781 311.484375 79.921875 310.398438 78.699219 309.304688 L 80.027344 307.8125 C 81.238281 308.890625 82.480469 309.964844 83.710938 311.003906 Z M 285.421875 315.679688 L 284.183594 314.113281 C 285.222656 313.292969 286.25 312.460938 287.265625 311.617188 L 288.539062 313.15625 C 287.511719 314.007812 286.472656 314.851562 285.421875 315.679688 Z M 95.0625 322.121094 C 93.949219 321.363281 92.855469 320.589844 91.769531 319.808594 L 92.9375 318.1875 C 94.007812 318.960938 95.09375 319.726562 96.1875 320.476562 Z M 271.746094 325.351562 L 270.675781 323.667969 C 272.058594 322.792969 273.425781 321.894531 274.75 321.007812 L 275.867188 322.660156 C 274.527344 323.5625 273.144531 324.472656 271.746094 325.351562 Z M 109.375 330.863281 C 105.921875 328.996094 102.488281 326.972656 99.175781 324.851562 L 100.253906 323.164062 C 103.523438 325.261719 106.914062 327.261719 110.328125 329.105469 Z M 257.964844 333.144531 L 257.066406 331.359375 C 260.523438 329.625 263.96875 327.734375 267.300781 325.742188 L 268.328125 327.457031 C 264.949219 329.476562 261.460938 331.390625 257.964844 333.144531 Z M 117.375 334.910156 C 115.875 334.207031 114.382812 333.46875 112.941406 332.734375 L 113.84375 330.957031 C 115.273438 331.679688 116.746094 332.40625 118.226562 333.101562 Z M 249.878906 336.925781 L 249.085938 335.09375 C 250.292969 334.566406 251.496094 334.027344 252.695312 333.472656 L 253.53125 335.28125 C 252.324219 335.847656 251.101562 336.394531 249.878906 336.925781 Z M 132.054688 340.953125 C 130.789062 340.5 129.527344 340.035156 128.273438 339.554688 L 128.988281 337.6875 C 130.226562 338.164062 131.46875 338.621094 132.722656 339.070312 Z M 234.1875 342.777344 L 233.589844 340.875 C 235.148438 340.386719 236.699219 339.871094 238.214844 339.339844 L 238.871094 341.230469 C 237.339844 341.757812 235.765625 342.285156 234.1875 342.777344 Z M 148.136719 345.71875 C 144.316406 344.800781 140.484375 343.730469 136.746094 342.53125 L 137.351562 340.628906 C 141.042969 341.8125 144.828125 342.875 148.605469 343.777344 Z M 218.851562 346.777344 L 218.445312 344.824219 C 222.234375 344.03125 226.054688 343.085938 229.789062 342.019531 L 230.339844 343.9375 C 226.554688 345.023438 222.691406 345.976562 218.851562 346.777344 Z M 156.898438 347.566406 C 155.289062 347.273438 153.664062 346.953125 152.058594 346.609375 L 152.476562 344.652344 C 154.0625 344.996094 155.667969 345.3125 157.25 345.597656 Z M 210.046875 348.359375 L 209.75 346.378906 C 211.058594 346.1875 212.367188 345.96875 213.664062 345.742188 L 214.015625 347.710938 C 212.695312 347.945312 211.375 348.160156 210.046875 348.359375 Z M 172.605469 349.625 C 171.265625 349.519531 169.929688 349.390625 168.605469 349.25 L 168.816406 347.265625 C 170.128906 347.40625 171.445312 347.527344 172.769531 347.636719 Z M 193.371094 349.996094 L 193.277344 347.996094 C 194.910156 347.921875 196.546875 347.820312 198.140625 347.695312 L 198.292969 349.691406 C 196.675781 349.8125 195.019531 349.914062 193.371094 349.996094 Z M 185.859375 350.167969 C 183.09375 350.167969 180.289062 350.09375 177.527344 349.953125 L 177.625 347.957031 C 181.515625 348.15625 185.445312 348.210938 189.3125 348.128906 L 189.351562 350.125 C 188.195312 350.152344 187.027344 350.164062 185.859375 350.167969 " fill-opacity="1" fill-rule="nonzero"/></g><path fill="#3a6e8a" d="M 261.902344 14.027344 C 284.652344 14.027344 303.089844 32.476562 303.089844 55.230469 C 303.089844 77.984375 284.652344 96.433594 261.902344 96.433594 C 239.160156 96.433594 220.714844 77.984375 220.714844 55.230469 C 220.714844 32.476562 239.160156 14.027344 261.902344 14.027344 " fill-opacity="1" fill-rule="nonzero"/><path fill="#ffffff" d="M 248.878906 66.160156 C 244.585938 66.160156 241.105469 62.675781 241.105469 58.382812 C 241.105469 54.085938 244.585938 50.609375 248.878906 50.609375 C 253.171875 50.609375 256.652344 54.085938 256.652344 58.382812 C 256.652344 62.675781 253.171875 66.160156 248.878906 66.160156 Z M 262.769531 59.082031 C 262.777344 58.851562 262.785156 58.617188 262.785156 58.382812 C 262.785156 58.148438 262.777344 57.914062 262.769531 57.679688 C 259.503906 56.269531 259.078125 54.738281 261.207031 51.941406 C 261 51.550781 260.777344 51.171875 260.539062 50.800781 C 257.0625 51.296875 255.964844 50.199219 256.453125 46.71875 C 256.089844 46.480469 255.710938 46.257812 255.320312 46.046875 C 252.519531 48.183594 250.988281 47.75 249.578125 44.488281 C 249.347656 44.476562 249.113281 44.46875 248.878906 44.46875 C 248.644531 44.46875 248.40625 44.476562 248.175781 44.488281 C 246.765625 47.75 245.234375 48.183594 242.4375 46.046875 C 242.046875 46.257812 241.664062 46.480469 241.300781 46.71875 C 241.789062 50.199219 240.695312 51.296875 237.21875 50.800781 C 236.980469 51.171875 236.753906 51.550781 236.550781 51.941406 C 238.675781 54.738281 238.25 56.269531 234.992188 57.679688 C 234.976562 57.914062 234.972656 58.148438 234.972656 58.382812 C 234.972656 58.617188 234.976562 58.851562 234.992188 59.082031 C 238.25 60.492188 238.675781 62.027344 236.550781 64.824219 C 236.753906 65.214844 236.980469 65.597656 237.21875 65.960938 C 240.695312 65.472656 241.789062 66.570312 241.300781 70.046875 C 241.664062 70.289062 242.046875 70.511719 242.4375 70.710938 C 245.234375 68.585938 246.765625 69.019531 248.175781 72.273438 C 248.40625 72.285156 248.644531 72.292969 248.878906 72.292969 C 249.113281 72.292969 249.347656 72.285156 249.578125 72.273438 C 250.988281 69.019531 252.519531 68.585938 255.320312 70.710938 C 255.710938 70.511719 256.089844 70.289062 256.453125 70.046875 C 255.964844 66.570312 257.0625 65.472656 260.539062 65.960938 C 260.777344 65.597656 261 65.214844 261.207031 64.824219 C 259.078125 62.027344 259.503906 60.492188 262.769531 59.082031 " fill-opacity="1" fill-rule="nonzero"/><path fill="#ffffff" d="M 269.574219 49.441406 C 265.285156 49.441406 261.800781 45.957031 261.800781 41.664062 C 261.800781 37.371094 265.285156 33.890625 269.574219 33.890625 C 273.871094 33.890625 277.347656 37.371094 277.347656 41.664062 C 277.347656 45.957031 273.871094 49.441406 269.574219 49.441406 Z M 283.464844 42.363281 C 283.476562 42.132812 283.480469 41.898438 283.480469 41.664062 C 283.480469 41.429688 283.476562 41.195312 283.464844 40.960938 C 280.203125 39.554688 279.777344 38.023438 281.902344 35.222656 C 281.699219 34.832031 281.476562 34.453125 281.238281 34.082031 C 277.757812 34.578125 276.664062 33.476562 277.15625 30 C 276.789062 29.761719 276.40625 29.539062 276.015625 29.332031 C 273.222656 31.464844 271.6875 31.03125 270.277344 27.769531 C 270.046875 27.757812 269.808594 27.753906 269.574219 27.753906 C 269.339844 27.753906 269.105469 27.757812 268.875 27.769531 C 267.464844 31.03125 265.933594 31.464844 263.132812 29.332031 C 262.742188 29.539062 262.367188 29.761719 262 30 C 262.488281 33.476562 261.390625 34.578125 257.914062 34.082031 C 257.675781 34.453125 257.453125 34.832031 257.25 35.222656 C 259.378906 38.023438 258.945312 39.554688 255.6875 40.960938 C 255.679688 41.195312 255.667969 41.429688 255.667969 41.664062 C 255.667969 41.898438 255.679688 42.132812 255.6875 42.363281 C 258.945312 43.773438 259.378906 45.308594 257.25 48.109375 C 257.453125 48.5 257.675781 48.882812 257.914062 49.246094 C 261.390625 48.757812 262.488281 49.851562 262 53.332031 C 262.367188 53.570312 262.742188 53.796875 263.132812 53.996094 C 265.933594 51.871094 267.464844 52.296875 268.875 55.558594 C 269.105469 55.570312 269.339844 55.574219 269.574219 55.574219 C 269.808594 55.574219 270.046875 55.570312 270.277344 55.558594 C 271.6875 52.296875 273.222656 51.871094 276.015625 53.996094 C 276.40625 53.796875 276.789062 53.570312 277.15625 53.332031 C 276.664062 49.851562 277.757812 48.757812 281.238281 49.246094 C 281.476562 48.882812 281.699219 48.5 281.902344 48.109375 C 279.777344 45.308594 280.203125 43.773438 283.464844 42.363281 " fill-opacity="1" fill-rule="nonzero"/><path fill="#ffffff" d="M 273.375 76.570312 C 269.082031 76.570312 265.601562 73.09375 265.601562 68.796875 C 265.601562 64.503906 269.082031 61.019531 273.375 61.019531 C 277.664062 61.019531 281.144531 64.503906 281.144531 68.796875 C 281.144531 73.09375 277.664062 76.570312 273.375 76.570312 Z M 287.261719 69.5 C 287.273438 69.265625 287.277344 69.03125 287.277344 68.796875 C 287.277344 68.5625 287.273438 68.328125 287.261719 68.097656 C 284.003906 66.6875 283.570312 65.152344 285.699219 62.355469 C 285.496094 61.964844 285.273438 61.582031 285.035156 61.214844 C 281.558594 61.707031 280.460938 60.609375 280.953125 57.132812 C 280.582031 56.890625 280.203125 56.667969 279.8125 56.464844 C 277.015625 58.59375 275.480469 58.164062 274.078125 54.902344 C 273.84375 54.894531 273.609375 54.886719 273.375 54.886719 C 273.140625 54.886719 272.90625 54.894531 272.671875 54.902344 C 271.261719 58.164062 269.730469 58.59375 266.933594 56.464844 C 266.542969 56.667969 266.164062 56.890625 265.792969 57.132812 C 266.285156 60.609375 265.191406 61.707031 261.710938 61.214844 C 261.472656 61.582031 261.25 61.964844 261.046875 62.355469 C 263.175781 65.152344 262.742188 66.6875 259.484375 68.097656 C 259.472656 68.328125 259.46875 68.5625 259.46875 68.796875 C 259.46875 69.03125 259.472656 69.265625 259.484375 69.5 C 262.742188 70.910156 263.175781 72.441406 261.046875 75.238281 C 261.25 75.628906 261.472656 76.007812 261.710938 76.378906 C 265.191406 75.886719 266.285156 76.984375 265.792969 80.460938 C 266.164062 80.699219 266.542969 80.921875 266.933594 81.128906 C 269.730469 78.996094 271.261719 79.429688 272.671875 82.691406 C 272.90625 82.703125 273.140625 82.710938 273.375 82.710938 C 273.609375 82.710938 273.84375 82.703125 274.078125 82.691406 C 275.480469 79.429688 277.015625 78.996094 279.8125 81.128906 C 280.203125 80.921875 280.582031 80.699219 280.953125 80.460938 C 280.460938 76.984375 281.558594 75.886719 285.035156 76.378906 C 285.273438 76.007812 285.496094 75.628906 285.699219 75.238281 C 283.570312 72.441406 284.003906 70.910156 287.261719 69.5 " fill-opacity="1" fill-rule="nonzero"/><path fill="#f6861f" d="M 302.847656 277.707031 C 314.320312 277.707031 323.621094 287.011719 323.621094 298.484375 C 323.621094 309.964844 314.320312 319.269531 302.847656 319.269531 C 291.371094 319.269531 282.074219 309.964844 282.074219 298.484375 C 282.074219 287.011719 291.371094 277.707031 302.847656 277.707031 " fill-opacity="1" fill-rule="nonzero"/><path fill="#ffffff" d="M 305.089844 304.574219 L 300.460938 304.574219 C 299.460938 304.574219 298.65625 305.382812 298.65625 306.378906 L 298.65625 310.074219 C 298.65625 311.070312 299.460938 311.882812 300.460938 311.882812 L 301.03125 311.882812 L 301.03125 312.199219 C 301.03125 313.113281 301.777344 313.859375 302.6875 313.859375 L 302.855469 313.859375 C 303.773438 313.859375 304.519531 313.113281 304.519531 312.199219 L 304.519531 311.882812 L 305.089844 311.882812 C 306.082031 311.882812 306.894531 311.070312 306.894531 310.074219 L 306.894531 306.378906 C 306.894531 305.382812 306.082031 304.574219 305.089844 304.574219 " fill-opacity="1" fill-rule="nonzero"/><path fill="#ffffff" d="M 306.277344 306.105469 L 299.417969 306.105469 C 298.3125 306.105469 297.417969 305.222656 297.296875 304.011719 C 297.019531 301.351562 296.742188 300.691406 295.167969 298.992188 L 295.152344 298.984375 L 295.113281 298.929688 C 293.761719 297.195312 293.046875 295.113281 293.046875 292.910156 C 293.046875 287.511719 297.441406 283.117188 302.835938 283.117188 L 302.851562 283.117188 C 308.257812 283.117188 312.648438 287.511719 312.648438 292.910156 C 312.648438 295.109375 311.9375 297.1875 310.589844 298.917969 L 310.523438 299 C 308.953125 300.691406 308.675781 301.351562 308.402344 304.011719 C 308.277344 305.222656 307.382812 306.105469 306.277344 306.105469 " fill-opacity="1" fill-rule="nonzero"/><path fill="#f6861f" d="M 311.386719 293.078125 C 311.386719 288.375 307.566406 284.554688 302.859375 284.554688 L 302.835938 284.554688 C 298.125 284.554688 294.3125 288.375 294.3125 293.078125 C 294.3125 295.0625 294.988281 296.890625 296.128906 298.339844 L 296.125 298.339844 L 296.144531 298.363281 C 297.628906 299.964844 297.886719 300.65625 298.132812 303.039062 C 298.226562 303.9375 298.863281 304.667969 299.757812 304.667969 L 305.9375 304.667969 C 306.835938 304.667969 307.46875 303.9375 307.5625 303.039062 C 307.808594 300.65625 308.070312 299.964844 309.554688 298.363281 L 309.574219 298.339844 L 309.570312 298.339844 C 310.703125 296.890625 311.386719 295.0625 311.386719 293.078125 " fill-opacity="1" fill-rule="nonzero"/><path fill="#f6861f" d="M 307.304688 307.296875 C 307.324219 307.558594 307.128906 307.789062 306.863281 307.808594 L 298.753906 308.433594 C 298.492188 308.453125 298.261719 308.253906 298.242188 307.992188 C 298.21875 307.730469 298.417969 307.503906 298.679688 307.480469 L 306.792969 306.855469 C 307.058594 306.835938 307.285156 307.035156 307.304688 307.296875 " fill-opacity="1" fill-rule="nonzero"/><path fill="#f6861f" d="M 307.304688 308.871094 C 307.324219 309.136719 307.128906 309.363281 306.863281 309.386719 L 298.753906 310.007812 C 298.492188 310.03125 298.261719 309.828125 298.242188 309.566406 C 298.21875 309.304688 298.417969 309.078125 298.679688 309.058594 L 306.792969 308.433594 C 307.058594 308.414062 307.285156 308.609375 307.304688 308.871094 " fill-opacity="1" fill-rule="nonzero"/><path fill="#f6861f" d="M 307.304688 310.445312 C 307.324219 310.710938 307.128906 310.941406 306.863281 310.960938 L 298.753906 311.582031 C 298.492188 311.605469 298.261719 311.40625 298.242188 311.144531 C 298.21875 310.882812 298.417969 310.65625 298.679688 310.636719 L 306.792969 310.011719 C 307.058594 309.988281 307.285156 310.1875 307.304688 310.445312 " fill-opacity="1" fill-rule="nonzero"/><path fill="#f6861f" d="M 102.3125 80.308594 C 102.3125 102.027344 84.710938 119.636719 63 119.636719 C 41.289062 119.636719 23.6875 102.027344 23.6875 80.308594 C 23.6875 58.589844 41.289062 40.988281 63 40.988281 C 84.710938 40.988281 102.3125 58.589844 102.3125 80.308594 " fill-opacity="1" fill-rule="nonzero"/><path fill="#ffffff" d="M 88.808594 72.183594 C 88.8125 72.34375 88.8125 72.5 88.8125 72.660156 C 88.8125 72.414062 88.8125 72.265625 88.808594 72.183594 " fill-opacity="1" fill-rule="nonzero"/><path fill="#ffffff" d="M 88.777344 73.375 C 88.773438 73.945312 88.777344 74.191406 88.8125 72.660156 C 88.808594 72.894531 88.796875 73.136719 88.777344 73.375 " fill-opacity="1" fill-rule="nonzero"/><path fill="#ffffff" d="M 88.808594 72.183594 C 88.792969 70.75 88.425781 68.261719 87.667969 67 L 87.488281 66.71875 C 87.636719 63.851562 86.660156 60.941406 84.554688 58.695312 L 69.15625 74.101562 C 71.398438 76.207031 74.3125 77.183594 77.179688 77.035156 C 77.214844 77.847656 72.460938 92.003906 61.316406 94.089844 C 60.28125 94.285156 59.890625 93.640625 59.84375 93.660156 C 59.804688 91.035156 58.824219 88.414062 56.898438 86.363281 L 41.503906 101.765625 C 43.640625 103.773438 46.390625 104.757812 49.128906 104.71875 C 49.179688 104.820312 49.289062 104.90625 49.386719 104.96875 C 49.738281 105.199219 50.140625 105.359375 50.527344 105.515625 C 52.539062 106.300781 54.84375 106.3125 56.972656 106.089844 C 71.015625 104.632812 88.777344 89.699219 88.777344 73.375 C 88.785156 72.777344 88.804688 71.828125 88.808594 72.183594 " fill-opacity="1" fill-rule="nonzero"/><path fill="#ffffff" d="M 83.339844 55.613281 C 83.089844 55.367188 82.753906 55.230469 82.386719 55.230469 C 81.972656 55.230469 81.558594 55.40625 81.25 55.714844 L 66.175781 70.792969 C 65.574219 71.398438 65.527344 72.335938 66.074219 72.886719 L 67.011719 73.824219 C 67.257812 74.070312 67.59375 74.207031 67.960938 74.207031 C 68.375 74.207031 68.792969 74.03125 69.105469 73.71875 L 84.171875 58.644531 C 84.777344 58.035156 84.820312 57.101562 84.273438 56.554688 L 83.339844 55.613281 " fill-opacity="1" fill-rule="nonzero"/><path fill="#f6861f" d="M 82.386719 56.085938 C 82.199219 56.085938 81.996094 56.171875 81.851562 56.320312 L 66.78125 71.398438 C 66.640625 71.539062 66.554688 71.71875 66.542969 71.90625 C 66.539062 71.992188 66.550781 72.15625 66.675781 72.277344 L 67.617188 73.21875 C 67.816406 73.421875 68.242188 73.371094 68.5 73.113281 L 83.566406 58.039062 C 83.835938 57.773438 83.882812 57.363281 83.675781 57.15625 L 82.738281 56.21875 C 82.652344 56.132812 82.527344 56.085938 82.386719 56.085938 Z M 67.960938 75.058594 C 67.363281 75.058594 66.820312 74.832031 66.40625 74.425781 L 65.46875 73.488281 C 65.035156 73.050781 64.808594 72.457031 64.839844 71.816406 C 64.875 71.214844 65.132812 70.632812 65.578125 70.191406 L 80.644531 55.117188 C 81.546875 54.214844 83.089844 54.160156 83.9375 55.007812 L 84.878906 55.949219 C 85.757812 56.832031 85.714844 58.308594 84.773438 59.246094 L 69.703125 74.324219 C 69.234375 74.785156 68.597656 75.058594 67.960938 75.058594 " fill-opacity="1" fill-rule="nonzero"/><path fill="#ffffff" d="M 55.683594 83.277344 C 55.4375 83.03125 55.101562 82.894531 54.734375 82.894531 C 54.320312 82.894531 53.902344 83.074219 53.59375 83.382812 L 38.523438 98.460938 C 37.917969 99.0625 37.867188 100 38.417969 100.550781 L 39.355469 101.488281 C 39.605469 101.738281 39.941406 101.871094 40.304688 101.871094 C 40.722656 101.871094 41.136719 101.695312 41.449219 101.386719 L 56.519531 86.308594 C 56.8125 86.007812 56.988281 85.625 57.003906 85.226562 C 57.019531 84.835938 56.882812 84.480469 56.625 84.214844 L 55.683594 83.277344 " fill-opacity="1" fill-rule="nonzero"/><path fill="#f6861f" d="M 54.734375 83.75 C 54.542969 83.75 54.34375 83.835938 54.195312 83.984375 L 39.125 99.0625 C 38.855469 99.332031 38.808594 99.734375 39.019531 99.949219 L 39.960938 100.886719 C 40.164062 101.089844 40.585938 101.042969 40.84375 100.78125 L 55.914062 85.703125 C 56.058594 85.558594 56.144531 85.378906 56.152344 85.195312 C 56.15625 85.085938 56.136719 84.933594 56.019531 84.820312 L 55.078125 83.882812 C 54.996094 83.796875 54.875 83.75 54.734375 83.75 Z M 40.304688 102.722656 C 39.714844 102.722656 39.164062 102.496094 38.757812 102.09375 L 37.816406 101.152344 C 36.9375 100.273438 36.980469 98.796875 37.917969 97.855469 L 52.992188 82.777344 C 53.890625 81.878906 55.441406 81.832031 56.289062 82.671875 L 57.226562 83.609375 C 57.65625 84.046875 57.878906 84.636719 57.855469 85.261719 C 57.828125 85.871094 57.570312 86.460938 57.121094 86.910156 L 42.050781 101.988281 C 41.582031 102.457031 40.949219 102.722656 40.304688 102.722656 " fill-opacity="1" fill-rule="nonzero"/><path fill="#f1b013" d="M 365.578125 152.238281 C 365.578125 168.914062 352.066406 182.429688 335.398438 182.429688 C 318.730469 182.429688 305.21875 168.914062 305.21875 152.238281 C 305.21875 135.566406 318.730469 122.054688 335.398438 122.054688 C 352.066406 122.054688 365.578125 135.566406 365.578125 152.238281 " fill-opacity="1" fill-rule="nonzero"/><path fill="#ffffff" d="M 324.238281 147.246094 C 324.238281 146.003906 324.570312 145.058594 325.242188 144.40625 C 325.820312 143.828125 326.578125 143.539062 327.519531 143.539062 C 328.382812 143.539062 329.117188 143.859375 329.730469 144.511719 C 330.339844 145.160156 330.644531 145.914062 330.644531 146.777344 C 330.644531 147.671875 330.445312 148.535156 330.046875 149.359375 C 329.832031 149.820312 329.328125 150.609375 328.535156 151.738281 C 328.316406 152.042969 327.996094 152.519531 327.574219 153.164062 L 327.214844 153.699219 C 326.984375 154.046875 326.8125 154.324219 326.691406 154.527344 C 326.636719 154.632812 326.609375 154.691406 326.609375 154.714844 L 330.488281 154.714844 L 330.488281 156.652344 L 324.207031 156.652344 L 324.207031 154.835938 C 324.207031 154.792969 324.351562 154.554688 324.636719 154.113281 C 324.769531 153.914062 324.921875 153.6875 325.085938 153.449219 L 325.605469 152.703125 C 325.902344 152.292969 326.371094 151.636719 327.015625 150.730469 C 327.621094 149.878906 328.074219 149.109375 328.375 148.417969 C 328.621094 147.855469 328.738281 147.324219 328.738281 146.839844 C 328.738281 146.445312 328.628906 146.105469 328.40625 145.828125 C 328.164062 145.53125 327.847656 145.390625 327.464844 145.390625 C 326.914062 145.390625 326.527344 145.707031 326.296875 146.339844 C 326.21875 146.546875 326.179688 146.800781 326.179688 147.09375 L 326.179688 147.59375 L 324.238281 147.59375 L 324.238281 147.246094 " fill-opacity="1" fill-rule="nonzero"/><path fill="#ffffff" d="M 334.226562 151.839844 L 334.226562 147.746094 L 332.601562 151.839844 Z M 330.738281 151.839844 L 334.226562 143.539062 L 336.203125 143.539062 L 336.203125 151.839844 L 337.46875 151.839844 L 337.46875 153.828125 L 336.203125 153.828125 L 336.203125 156.652344 L 334.226562 156.652344 L 334.226562 153.828125 L 330.738281 153.828125 L 330.738281 151.839844 " fill-opacity="1" fill-rule="nonzero"/><path fill="#ffffff" d="M 344.292969 142.71875 L 345.90625 142.71875 L 340.4375 157.058594 L 338.828125 157.058594 L 344.292969 142.71875 " fill-opacity="1" fill-rule="nonzero"/><path fill="#ffffff" d="M 353.195312 143.539062 L 353.195312 145.523438 L 350.429688 156.652344 L 348.492188 156.652344 L 351.261719 145.523438 L 347.265625 145.523438 L 347.265625 143.539062 L 353.195312 143.539062 " fill-opacity="1" fill-rule="nonzero"/><path fill="#ffffff" d="M 348.34375 158.460938 L 340.082031 160.3125 L 343.117188 162.59375 C 340.523438 165.042969 337.09375 166.4375 333.40625 166.4375 C 325.578125 166.4375 319.214844 160.070312 319.214844 152.238281 C 319.214844 144.414062 325.578125 138.039062 333.40625 138.039062 L 333.523438 138.046875 L 333.597656 138.050781 C 333.800781 138.054688 333.996094 137.972656 334.140625 137.828125 C 334.285156 137.683594 334.367188 137.488281 334.367188 137.285156 L 334.367188 136.09375 C 334.367188 135.671875 334.03125 135.335938 333.613281 135.332031 L 333.550781 135.328125 L 333.40625 135.328125 C 324.082031 135.328125 316.5 142.914062 316.5 152.238281 C 316.5 161.570312 324.082031 169.15625 333.40625 169.15625 C 337.925781 169.15625 342.183594 167.34375 345.308594 164.242188 L 348.34375 166.523438 L 348.34375 158.460938 " fill-opacity="1" fill-rule="nonzero"/><path fill="#39bcc1" d="M 356.375 237.398438 C 356.375 246.390625 349.085938 253.679688 340.097656 253.679688 C 331.105469 253.679688 323.816406 246.390625 323.816406 237.398438 C 323.816406 228.402344 331.105469 221.109375 340.097656 221.109375 C 349.085938 221.109375 356.375 228.402344 356.375 237.398438 " fill-opacity="1" fill-rule="nonzero"/><path fill="#ffffff" d="M 340.097656 246.621094 C 335.867188 246.621094 332.425781 243.179688 332.425781 238.949219 C 332.425781 234.722656 335.867188 231.28125 340.097656 231.28125 C 344.324219 231.28125 347.761719 234.722656 347.761719 238.949219 C 347.761719 243.179688 344.324219 246.621094 340.097656 246.621094 Z M 342.128906 229.769531 C 342.136719 229.679688 342.144531 229.585938 342.144531 229.480469 C 342.144531 229.335938 342.128906 229.191406 342.101562 229.050781 L 342.558594 229.050781 C 343.277344 229.050781 343.863281 228.464844 343.863281 227.75 C 343.863281 227.027344 343.277344 226.445312 342.558594 226.445312 L 337.632812 226.445312 C 336.910156 226.445312 336.328125 227.027344 336.328125 227.75 C 336.328125 228.464844 336.910156 229.050781 337.632812 229.050781 L 338.085938 229.050781 C 338.0625 229.191406 338.046875 229.335938 338.046875 229.480469 C 338.046875 229.585938 338.054688 229.679688 338.0625 229.769531 C 337.179688 229.96875 336.339844 230.289062 335.566406 230.710938 L 335.042969 229.851562 C 334.898438 229.621094 334.441406 229.648438 334.019531 229.90625 C 333.597656 230.164062 333.367188 230.558594 333.507812 230.789062 L 334.082031 231.730469 C 333.96875 231.832031 333.851562 231.929688 333.742188 232.03125 L 333.414062 231.726562 C 333.257812 231.582031 332.921875 231.699219 332.65625 231.984375 C 332.398438 232.269531 332.308594 232.617188 332.464844 232.757812 L 332.785156 233.054688 C 331.480469 234.667969 330.699219 236.714844 330.699219 238.949219 C 330.699219 244.128906 334.914062 248.347656 340.097656 248.347656 C 345.277344 248.347656 349.492188 244.128906 349.492188 238.949219 C 349.492188 234.464844 346.335938 230.703125 342.128906 229.769531 " fill-opacity="1" fill-rule="nonzero"/><path fill="#ffffff" d="M 346.480469 239.675781 C 346.503906 239.4375 346.523438 239.195312 346.523438 238.949219 C 346.523438 235.402344 343.640625 232.519531 340.097656 232.519531 L 340.097656 239.675781 L 346.480469 239.675781 " fill-opacity="1" fill-rule="nonzero"/><path fill="#3a6e8a" d="M 24.875 160.71875 C 38.597656 160.71875 49.714844 171.84375 49.714844 185.570312 C 49.714844 199.296875 38.597656 210.421875 24.875 210.421875 C 11.15625 210.421875 0.03125 199.296875 0.03125 185.570312 C 0.03125 171.84375 11.15625 160.71875 24.875 160.71875 " fill-opacity="1" fill-rule="nonzero"/><path fill="#ffffff" d="M 41.402344 196.683594 L 41.417969 196.417969 C 41.417969 191.992188 36.761719 188.40625 31.023438 188.40625 C 25.285156 188.40625 20.632812 191.992188 20.632812 196.417969 L 20.640625 196.683594 L 41.402344 196.683594 " fill-opacity="1" fill-rule="nonzero"/><path fill="#ffffff" d="M 37.628906 180.613281 C 37.628906 184.257812 34.671875 187.21875 31.023438 187.21875 C 27.378906 187.21875 24.425781 184.257812 24.425781 180.613281 C 24.425781 176.964844 27.378906 174.003906 31.023438 174.003906 C 34.671875 174.003906 37.628906 176.964844 37.628906 180.613281 " fill-opacity="1" fill-rule="nonzero"/><path fill="#ffffff" d="M 25.925781 196.835938 L 25.933594 196.621094 C 25.933594 192.96875 22.09375 190.003906 17.359375 190.003906 C 12.621094 190.003906 8.789062 192.96875 8.789062 196.621094 L 8.792969 196.835938 L 25.925781 196.835938 " fill-opacity="1" fill-rule="nonzero"/><path fill="#3a6e8a" d="M 9.089844 196.535156 L 25.632812 196.535156 C 25.570312 193.097656 21.882812 190.304688 17.359375 190.304688 C 12.832031 190.304688 9.144531 193.097656 9.089844 196.535156 Z M 25.925781 197.136719 L 8.503906 197.136719 L 8.492188 196.8125 L 8.488281 196.621094 C 8.488281 192.808594 12.464844 189.703125 17.359375 189.703125 C 22.253906 189.703125 26.234375 192.808594 26.234375 196.621094 L 26.226562 196.824219 L 26.210938 197.109375 L 25.925781 197.136719 " fill-opacity="1" fill-rule="nonzero"/><path fill="#ffffff" d="M 22.808594 183.574219 C 22.808594 186.582031 20.367188 189.023438 17.359375 189.023438 C 14.347656 189.023438 11.910156 186.582031 11.910156 183.574219 C 11.910156 180.5625 14.347656 178.121094 17.359375 178.121094 C 20.367188 178.121094 22.808594 180.5625 22.808594 183.574219 " fill-opacity="1" fill-rule="nonzero"/><path fill="#39bcc1" d="M 56.5625 258.257812 C 71.9375 258.257812 84.402344 270.730469 84.402344 286.113281 C 84.402344 301.492188 71.9375 313.960938 56.5625 313.960938 C 41.1875 313.960938 28.71875 301.492188 28.71875 286.113281 C 28.71875 270.730469 41.1875 258.257812 56.5625 258.257812 " fill-opacity="1" fill-rule="nonzero"/><path fill="#ffffff" d="M 57.316406 300.371094 L 57.316406 298.292969 L 55.808594 298.292969 L 55.808594 300.371094 C 48.523438 299.992188 42.6875 294.152344 42.308594 286.863281 L 44.382812 286.863281 L 44.382812 285.355469 L 42.308594 285.355469 C 42.6875 278.070312 48.523438 272.230469 55.808594 271.851562 L 55.808594 273.933594 L 57.316406 273.933594 L 57.316406 271.851562 C 64.597656 272.230469 70.433594 278.070312 70.8125 285.355469 L 68.738281 285.355469 L 68.738281 286.863281 L 70.8125 286.863281 C 70.433594 294.152344 64.597656 299.992188 57.316406 300.371094 Z M 56.5625 270.109375 C 47.726562 270.109375 40.566406 277.277344 40.566406 286.113281 C 40.566406 294.949219 47.726562 302.113281 56.5625 302.113281 C 65.394531 302.113281 72.554688 294.949219 72.554688 286.113281 C 72.554688 277.277344 65.394531 270.109375 56.5625 270.109375 " fill-opacity="1" fill-rule="nonzero"/><path fill="#ffffff" d="M 57.316406 284.621094 L 55.808594 284.621094 L 55.808594 274.664062 L 57.316406 274.664062 L 57.316406 284.621094 " fill-opacity="1" fill-rule="nonzero"/><path fill="#ffffff" d="M 63 286.863281 L 57.90625 286.863281 L 57.90625 285.355469 L 63 285.355469 L 63 286.863281 " fill-opacity="1" fill-rule="nonzero"/><path fill="#ffffff" d="M 56.707031 286.863281 C 56.289062 286.863281 55.949219 286.527344 55.949219 286.113281 C 55.949219 285.695312 56.289062 285.355469 56.707031 285.355469 C 57.121094 285.355469 57.460938 285.695312 57.460938 286.113281 C 57.460938 286.527344 57.121094 286.863281 56.707031 286.863281 Z M 56.707031 283.902344 C 55.484375 283.902344 54.5 284.894531 54.5 286.113281 C 54.5 287.328125 55.484375 288.320312 56.707031 288.320312 C 57.921875 288.320312 58.910156 287.328125 58.910156 286.113281 C 58.910156 284.894531 57.921875 283.902344 56.707031 283.902344 " fill-opacity="1" fill-rule="nonzero"/><path fill="#f1b013" d="M 181.769531 30.019531 C 181.769531 46.554688 168.375 59.949219 151.847656 59.949219 C 135.320312 59.949219 121.921875 46.554688 121.921875 30.019531 C 121.921875 13.484375 135.320312 0.0859375 151.847656 0.0859375 C 168.375 0.0859375 181.769531 13.484375 181.769531 30.019531 " fill-opacity="1" fill-rule="nonzero"/><path fill="#ffffff" d="M 159.683594 18.59375 C 159.699219 18.707031 159.707031 18.824219 159.707031 18.941406 C 159.707031 20.449219 158.492188 21.664062 156.988281 21.664062 L 149.902344 21.664062 C 148.402344 21.664062 147.179688 20.449219 147.179688 18.941406 C 147.179688 18.824219 147.191406 18.707031 147.210938 18.59375 L 145.882812 18.59375 L 145.882812 26.585938 L 161.007812 26.585938 L 161.007812 18.59375 L 159.683594 18.59375 " fill-opacity="1" fill-rule="nonzero"/><path fill="#ffffff" d="M 167.488281 39.953125 C 168.351562 41.789062 165.96875 43.269531 162.164062 43.269531 C 156.355469 43.269531 150.539062 43.269531 144.726562 43.269531 C 140.925781 43.269531 138.539062 41.789062 139.402344 39.953125 C 141.335938 35.519531 143.273438 31.082031 145.203125 26.644531 C 146.066406 24.816406 148.042969 23.332031 149.617188 23.332031 C 152.171875 23.332031 154.71875 23.332031 157.269531 23.332031 C 158.847656 23.332031 160.824219 24.816406 161.6875 26.644531 C 163.621094 31.082031 165.554688 35.519531 167.488281 39.953125 " fill-opacity="1" fill-rule="nonzero"/><path fill="#ffffff" d="M 167.667969 44.519531 C 167.667969 45.773438 165.71875 46.792969 163.316406 46.792969 L 143.574219 46.792969 C 141.171875 46.792969 139.226562 45.773438 139.226562 44.519531 L 139.226562 41.15625 C 139.226562 39.902344 141.171875 38.886719 143.574219 38.886719 L 163.316406 38.886719 C 165.71875 38.886719 167.667969 39.902344 167.667969 41.15625 L 167.667969 44.519531 " fill-opacity="1" fill-rule="nonzero"/><path fill="#f1b013" d="M 161.40625 44.039062 L 145.484375 44.039062 L 145.484375 41.175781 L 161.40625 41.175781 L 161.40625 44.039062 " fill-opacity="1" fill-rule="nonzero"/><path fill="#f1b013" d="M 161.347656 29.832031 C 161.347656 33.753906 157.808594 36.933594 153.445312 36.933594 C 149.078125 36.933594 145.539062 33.753906 145.539062 29.832031 C 145.539062 25.910156 149.078125 22.726562 153.445312 22.726562 C 157.808594 22.726562 161.347656 25.910156 161.347656 29.832031 " fill-opacity="1" fill-rule="nonzero"/><path fill="#ffffff" d="M 160.679688 29.226562 C 160.679688 32.816406 157.441406 35.726562 153.445312 35.726562 C 149.453125 35.726562 146.214844 32.816406 146.214844 29.226562 C 146.214844 25.636719 149.453125 22.726562 153.445312 22.726562 C 157.441406 22.726562 160.679688 25.636719 160.679688 29.226562 " fill-opacity="1" fill-rule="nonzero"/><path fill="#f1b013" d="M 155.449219 29.226562 C 155.449219 30.222656 154.554688 31.027344 153.445312 31.027344 C 152.339844 31.027344 151.441406 30.222656 151.441406 29.226562 C 151.441406 28.230469 152.339844 27.421875 153.445312 27.421875 C 154.554688 27.421875 155.449219 28.230469 155.449219 29.226562 " fill-opacity="1" fill-rule="nonzero"/><path fill="#f1b013" d="M 158.742188 26.226562 C 158.742188 26.691406 158.222656 27.0625 157.574219 27.0625 C 156.929688 27.0625 156.410156 26.691406 156.410156 26.226562 C 156.410156 25.765625 156.929688 25.390625 157.574219 25.390625 C 158.222656 25.390625 158.742188 25.765625 158.742188 26.226562 " fill-opacity="1" fill-rule="nonzero"/><path fill="#f1b013" d="M 156.617188 24.863281 C 156.617188 25.324219 156.097656 25.699219 155.449219 25.699219 C 154.804688 25.699219 154.28125 25.324219 154.28125 24.863281 C 154.28125 24.398438 154.804688 24.023438 155.449219 24.023438 C 156.097656 24.023438 156.617188 24.398438 156.617188 24.863281 " fill-opacity="1" fill-rule="nonzero"/><path fill="#f1b013" d="M 153.902344 24.550781 C 153.902344 25.011719 153.378906 25.390625 152.734375 25.390625 C 152.09375 25.390625 151.570312 25.011719 151.570312 24.550781 C 151.570312 24.085938 152.09375 23.714844 152.734375 23.714844 C 153.378906 23.714844 153.902344 24.085938 153.902344 24.550781 " fill-opacity="1" fill-rule="nonzero"/><path fill="#f1b013" d="M 151.175781 25.5625 C 151.175781 26.027344 150.652344 26.398438 150.007812 26.398438 C 149.363281 26.398438 148.839844 26.027344 148.839844 25.5625 C 148.839844 25.097656 149.363281 24.726562 150.007812 24.726562 C 150.652344 24.726562 151.175781 25.097656 151.175781 25.5625 " fill-opacity="1" fill-rule="nonzero"/><path fill="#f1b013" d="M 149.554688 27.421875 C 149.554688 27.886719 149.035156 28.261719 148.390625 28.261719 C 147.746094 28.261719 147.226562 27.886719 147.226562 27.421875 C 147.226562 26.960938 147.746094 26.585938 148.390625 26.585938 C 149.035156 26.585938 149.554688 26.960938 149.554688 27.421875 " fill-opacity="1" fill-rule="nonzero"/><path fill="#f1b013" d="M 149.292969 29.628906 C 149.292969 30.089844 148.769531 30.46875 148.125 30.46875 C 147.480469 30.46875 146.957031 30.089844 146.957031 29.628906 C 146.957031 29.164062 147.480469 28.789062 148.125 28.789062 C 148.769531 28.789062 149.292969 29.164062 149.292969 29.628906 " fill-opacity="1" fill-rule="nonzero"/><path fill="#f1b013" d="M 150.101562 31.867188 C 150.101562 32.328125 149.582031 32.707031 148.9375 32.707031 C 148.292969 32.707031 147.773438 32.328125 147.773438 31.867188 C 147.773438 31.402344 148.292969 31.027344 148.9375 31.027344 C 149.582031 31.027344 150.101562 31.402344 150.101562 31.867188 " fill-opacity="1" fill-rule="nonzero"/><path fill="#f1b013" d="M 152.136719 33.539062 C 152.136719 34 151.617188 34.378906 150.96875 34.378906 C 150.324219 34.378906 149.804688 34 149.804688 33.539062 C 149.804688 33.074219 150.324219 32.707031 150.96875 32.707031 C 151.617188 32.707031 152.136719 33.074219 152.136719 33.539062 " fill-opacity="1" fill-rule="nonzero"/><path fill="#f1b013" d="M 154.964844 34.101562 C 154.964844 34.5625 154.445312 34.9375 153.800781 34.9375 C 153.15625 34.9375 152.636719 34.5625 152.636719 34.101562 C 152.636719 33.640625 153.15625 33.265625 153.800781 33.265625 C 154.445312 33.265625 154.964844 33.640625 154.964844 34.101562 " fill-opacity="1" fill-rule="nonzero"/><path fill="#f1b013" d="M 157.785156 33.085938 C 157.785156 33.546875 157.261719 33.925781 156.617188 33.925781 C 155.972656 33.925781 155.449219 33.546875 155.449219 33.085938 C 155.449219 32.628906 155.972656 32.25 156.617188 32.25 C 157.261719 32.25 157.785156 32.628906 157.785156 33.085938 " fill-opacity="1" fill-rule="nonzero"/><path fill="#ffffff" d="M 142.347656 21.554688 L 134.808594 23.003906 C 134.15625 23.128906 133.730469 23.761719 133.855469 24.410156 C 133.980469 25.066406 134.609375 25.492188 135.265625 25.371094 L 142.796875 23.914062 C 143.453125 23.789062 143.878906 23.15625 143.753906 22.503906 C 143.628906 21.851562 142.996094 21.425781 142.347656 21.554688 " fill-opacity="1" fill-rule="nonzero"/><path fill="#ffffff" d="M 163.691406 20.726562 L 172.679688 22.503906 C 172.792969 13.773438 155.152344 13.277344 153.457031 13.246094 L 153.324219 13.246094 C 151.628906 13.277344 133.992188 13.773438 134.097656 22.503906 L 143.085938 20.726562 C 143.085938 20.726562 142.34375 18.265625 146.007812 18.207031 C 149.277344 18.152344 152.628906 18.195312 153.324219 18.203125 L 153.324219 18.207031 L 153.457031 18.207031 L 153.457031 18.203125 C 154.148438 18.195312 157.5 18.152344 160.769531 18.207031 C 164.4375 18.265625 163.691406 20.726562 163.691406 20.726562 " fill-opacity="1" fill-rule="nonzero"/><path fill="#ffffff" d="M 171.96875 23.003906 L 164.433594 21.554688 C 163.78125 21.425781 163.148438 21.851562 163.027344 22.503906 C 162.898438 23.15625 163.324219 23.789062 163.980469 23.914062 L 171.515625 25.371094 C 172.167969 25.492188 172.800781 25.066406 172.921875 24.410156 C 173.050781 23.761719 172.625 23.128906 171.96875 23.003906 " fill-opacity="1" fill-rule="nonzero"/><path fill="#dad9d9" d="M 24.371094 135.328125 C 24.371094 139.199219 21.230469 142.339844 17.359375 142.339844 C 13.484375 142.339844 10.351562 139.199219 10.351562 135.328125 C 10.351562 131.453125 13.484375 128.3125 17.359375 128.3125 C 21.230469 128.3125 24.371094 131.453125 24.371094 135.328125 " fill-opacity="1" fill-rule="nonzero"/><path fill="#dad9d9" d="M 323.507812 65.578125 C 323.519531 69.453125 320.390625 72.597656 316.519531 72.613281 C 312.644531 72.625 309.5 69.492188 309.488281 65.617188 C 309.476562 61.742188 312.605469 58.59375 316.480469 58.585938 C 320.351562 58.574219 323.5 61.707031 323.507812 65.578125 " fill-opacity="1" fill-rule="nonzero"/><g clip-path="url(#975402083e)"><path fill="#dad9d9" d="M 370.574219 204.742188 C 370.582031 207.503906 368.351562 209.746094 365.589844 209.757812 C 362.832031 209.765625 360.585938 207.53125 360.578125 204.773438 C 360.570312 202.011719 362.804688 199.765625 365.5625 199.757812 C 368.324219 199.75 370.566406 201.980469 370.574219 204.742188 " fill-opacity="1" fill-rule="nonzero"/></g><path fill="#dad9d9" d="M 320.464844 115.792969 C 320.46875 117.351562 319.210938 118.613281 317.65625 118.621094 C 316.101562 118.625 314.835938 117.367188 314.832031 115.808594 C 314.828125 114.25 316.085938 112.984375 317.636719 112.980469 C 319.195312 112.980469 320.460938 114.238281 320.464844 115.792969 " fill-opacity="1" fill-rule="nonzero"/><path fill="#dad9d9" d="M 337.464844 285.398438 C 337.476562 288.636719 334.855469 291.269531 331.621094 291.277344 C 328.382812 291.285156 325.75 288.667969 325.742188 285.429688 C 325.730469 282.1875 328.351562 279.558594 331.589844 279.550781 C 334.824219 279.535156 337.457031 282.15625 337.464844 285.398438 " fill-opacity="1" fill-rule="nonzero"/><path fill="#dad9d9" d="M 341.039062 274.65625 C 341.042969 276.625 339.453125 278.230469 337.480469 278.238281 C 335.511719 278.242188 333.90625 276.644531 333.898438 274.675781 C 333.894531 272.703125 335.488281 271.097656 337.457031 271.09375 C 339.429688 271.089844 341.035156 272.6875 341.039062 274.65625 " fill-opacity="1" fill-rule="nonzero"/><path fill="#dad9d9" d="M 107.492188 316.175781 C 107.492188 318.03125 105.980469 319.542969 104.121094 319.542969 C 102.261719 319.542969 100.753906 318.03125 100.753906 316.175781 C 100.753906 314.3125 102.261719 312.808594 104.121094 312.808594 C 105.980469 312.808594 107.492188 314.3125 107.492188 316.175781 " fill-opacity="1" fill-rule="nonzero"/><path fill="#dad9d9" d="M 29.480469 122.980469 C 29.480469 124.777344 28.027344 126.226562 26.234375 126.226562 C 24.441406 126.226562 22.984375 124.777344 22.984375 122.980469 C 22.984375 121.183594 24.441406 119.730469 26.234375 119.730469 C 28.027344 119.730469 29.480469 121.183594 29.480469 122.980469 " fill-opacity="1" fill-rule="nonzero"/><path fill="#dad9d9" d="M 15.160156 224.359375 C 15.160156 226.15625 13.703125 227.613281 11.910156 227.613281 C 10.117188 227.613281 8.660156 226.15625 8.660156 224.359375 C 8.660156 222.566406 10.117188 221.109375 11.910156 221.109375 C 13.703125 221.109375 15.160156 222.566406 15.160156 224.359375 " fill-opacity="1" fill-rule="nonzero"/><path fill="#dad9d9" d="M 218.835938 21.308594 C 218.835938 23.105469 217.382812 24.554688 215.585938 24.554688 C 213.792969 24.554688 212.339844 23.105469 212.339844 21.308594 C 212.339844 19.511719 213.792969 18.058594 215.585938 18.058594 C 217.382812 18.058594 218.835938 19.511719 218.835938 21.308594 " fill-opacity="1" fill-rule="nonzero"/><path fill="#dad9d9" d="M 118.375 55.574219 C 118.375 57.367188 116.917969 58.824219 115.128906 58.824219 C 113.335938 58.824219 111.878906 57.367188 111.878906 55.574219 C 111.878906 53.78125 113.335938 52.328125 115.128906 52.328125 C 116.917969 52.328125 118.375 53.78125 118.375 55.574219 " fill-opacity="1" fill-rule="nonzero"/></svg>