<svg xmlns="http://www.w3.org/2000/svg" xmlns:xlink="http://www.w3.org/1999/xlink" width="500" zoomAndPan="magnify" viewBox="0 0 375 374.999991" height="500" preserveAspectRatio="xMidYMid meet" version="1.0"><defs><clipPath id="d590ecb273"><path d="M 24 20.703125 L 177 20.703125 L 177 98 L 24 98 Z M 24 20.703125 " clip-rule="nonzero"/></clipPath><clipPath id="ea8b3bf56a"><path d="M 161 340 L 174 340 L 174 354.453125 L 161 354.453125 Z M 161 340 " clip-rule="nonzero"/></clipPath><clipPath id="032d83ccd1"><path d="M 173 340 L 190 340 L 190 354.453125 L 173 354.453125 Z M 173 340 " clip-rule="nonzero"/></clipPath><clipPath id="fe41154b5f"><path d="M 187 340 L 200 340 L 200 354.453125 L 187 354.453125 Z M 187 340 " clip-rule="nonzero"/></clipPath><clipPath id="b0c00f6530"><path d="M 197 340 L 214 340 L 214 354.453125 L 197 354.453125 Z M 197 340 " clip-rule="nonzero"/></clipPath></defs><path fill="#70d0e0" d="M 187.511719 294.246094 C 181.589844 294.246094 175.59375 293.746094 169.5625 292.714844 C 156.003906 290.390625 143.492188 285.574219 132.414062 278.816406 C 135.570312 274.882812 137.980469 270.28125 139.398438 265.195312 L 260.105469 265.195312 C 240.898438 283.410156 215.078125 294.246094 187.511719 294.246094 M 124.300781 273.332031 C 123.054688 272.402344 121.828125 271.445312 120.625 270.460938 L 120.625 265.195312 L 129.140625 265.195312 C 127.972656 268.207031 126.324219 270.945312 124.300781 273.332031 M 254.117188 106.425781 L 248.34375 106.425781 C 248.996094 105.429688 249.703125 104.476562 250.46875 103.578125 C 251.710938 104.5 252.925781 105.449219 254.117188 106.425781 M 237.277344 106.425781 L 171.9375 106.425781 L 178.886719 94.378906 L 174.703125 94.378906 L 166.933594 84.652344 C 173.550781 83.34375 180.351562 82.664062 187.261719 82.664062 C 193.179688 82.664062 199.179688 83.164062 205.210938 84.199219 C 218.769531 86.519531 231.28125 91.335938 242.355469 98.09375 C 240.335938 100.613281 238.621094 103.40625 237.277344 106.425781 M 139.933594 106.425781 L 128.128906 106.425781 L 128.128906 100.882812 C 130.136719 99.523438 132.191406 98.230469 134.289062 97.007812 L 134.503906 97.007812 L 139.933594 106.425781 " fill-opacity="1" fill-rule="nonzero"/><path fill="#70d0e0" d="M 306.195312 139.980469 L 301.4375 139.980469 L 301.4375 106.425781 L 296.226562 106.425781 C 292.027344 99.988281 285.265625 95.242188 277.113281 93.847656 C 275.492188 93.566406 273.871094 93.433594 272.277344 93.433594 C 263.738281 93.433594 255.800781 97.289062 250.46875 103.578125 C 249.703125 104.476562 248.996094 105.429688 248.34375 106.425781 L 237.277344 106.425781 C 238.621094 103.40625 240.335938 100.613281 242.355469 98.09375 C 249.503906 89.175781 260.453125 83.671875 272.269531 83.671875 C 274.410156 83.671875 276.578125 83.855469 278.757812 84.226562 C 299.597656 87.796875 313.644531 107.671875 310.078125 128.527344 C 309.375 132.636719 308.042969 136.480469 306.195312 139.980469 " fill-opacity="1" fill-rule="nonzero"/><path fill="#70d0e0" d="M 313.925781 139.980469 L 309.070312 139.980469 C 308.992188 138.832031 309.042969 137.65625 309.246094 136.476562 C 310.460938 129.367188 316.625 124.347656 323.589844 124.347656 C 324.410156 124.347656 325.234375 124.414062 326.066406 124.554688 C 332.816406 125.710938 337.679688 131.339844 338.148438 137.882812 L 315.078125 137.882812 L 313.925781 139.980469 " fill-opacity="1" fill-rule="nonzero"/><path fill="#70d0e0" d="M 324.96875 93.859375 C 324.3125 93.859375 323.648438 93.804688 322.976562 93.6875 C 316.597656 92.597656 312.316406 86.53125 313.40625 80.144531 C 314.382812 74.429688 319.335938 70.386719 324.941406 70.386719 C 325.601562 70.386719 326.261719 70.445312 326.933594 70.558594 C 333.316406 71.652344 337.597656 77.714844 336.503906 84.101562 C 335.53125 89.820312 330.574219 93.859375 324.96875 93.859375 " fill-opacity="1" fill-rule="nonzero"/><path fill="#70d0e0" d="M 292.21875 72.328125 C 291.890625 72.328125 291.558594 72.300781 291.21875 72.242188 C 288.03125 71.695312 285.890625 68.664062 286.4375 65.46875 C 286.925781 62.609375 289.402344 60.59375 292.207031 60.59375 C 292.535156 60.59375 292.863281 60.621094 293.199219 60.679688 C 296.390625 61.226562 298.53125 64.257812 297.988281 67.453125 C 297.5 70.308594 295.019531 72.328125 292.21875 72.328125 " fill-opacity="1" fill-rule="nonzero"/><path fill="#70d0e0" d="M 102.5 293.238281 C 100.359375 293.238281 98.195312 293.058594 96.011719 292.683594 C 92.230469 292.035156 88.671875 290.851562 85.398438 289.214844 L 119.519531 289.214844 C 114.332031 291.804688 108.527344 293.238281 102.5 293.238281 M 120.625 288.644531 L 120.625 276.953125 C 121.953125 275.863281 123.183594 274.648438 124.300781 273.332031 C 126.324219 270.945312 127.972656 268.207031 129.140625 265.195312 L 139.398438 265.195312 C 137.980469 270.28125 135.570312 274.882812 132.414062 278.816406 C 129.179688 282.863281 125.152344 286.199219 120.625 288.644531 M 73.328125 261.691406 L 64.753906 261.691406 C 64.617188 260.9375 64.503906 260.175781 64.410156 259.410156 L 73.328125 259.410156 L 73.328125 261.691406 M 73.328125 231.882812 L 71.773438 231.882812 C 72.273438 231.21875 72.792969 230.570312 73.328125 229.9375 L 73.328125 231.882812 " fill-opacity="1" fill-rule="nonzero"/><path fill="#70d0e0" d="M 38.636719 245.425781 C 36.925781 242.550781 36.191406 239.074219 36.796875 235.511719 C 37.175781 233.3125 38.027344 231.3125 39.226562 229.601562 L 63.09375 229.601562 C 63.597656 230.316406 64.039062 231.082031 64.40625 231.882812 L 38.636719 231.882812 L 38.636719 245.425781 " fill-opacity="1" fill-rule="nonzero"/><path fill="#70d0e0" d="M 49.828125 306.523438 C 49.167969 306.523438 48.507812 306.464844 47.835938 306.351562 C 41.457031 305.257812 37.175781 299.195312 38.265625 292.808594 C 38.484375 291.519531 38.90625 290.308594 39.496094 289.214844 L 60.132812 289.214844 C 61.332031 291.445312 61.828125 294.078125 61.371094 296.769531 C 60.390625 302.480469 55.433594 306.523438 49.828125 306.523438 " fill-opacity="1" fill-rule="nonzero"/><path fill="#70d0e0" d="M 82.566406 316.316406 C 82.238281 316.316406 81.910156 316.289062 81.574219 316.230469 C 78.382812 315.6875 76.242188 312.652344 76.785156 309.460938 C 77.273438 306.601562 79.753906 304.582031 82.554688 304.582031 C 82.882812 304.582031 83.214844 304.613281 83.550781 304.671875 C 86.742188 305.214844 88.882812 308.246094 88.335938 311.441406 C 87.847656 314.300781 85.371094 316.316406 82.566406 316.316406 " fill-opacity="1" fill-rule="nonzero"/><path fill="#70d0e0" d="M 59.355469 175.691406 C 58.945312 175.691406 58.53125 175.652344 58.113281 175.582031 C 54.148438 174.90625 51.484375 171.136719 52.167969 167.164062 C 52.773438 163.609375 55.855469 161.097656 59.335938 161.097656 C 59.746094 161.097656 60.160156 161.132812 60.578125 161.203125 C 64.542969 161.882812 67.207031 165.652344 66.523438 169.625 C 65.917969 173.179688 62.839844 175.691406 59.355469 175.691406 " fill-opacity="1" fill-rule="nonzero"/><path fill="#70d0e0" d="M 358.507812 147.917969 C 358.242188 147.917969 357.972656 147.898438 357.699219 147.851562 C 355.117188 147.410156 353.382812 144.953125 353.824219 142.371094 C 354.21875 140.050781 356.226562 138.417969 358.496094 138.417969 C 358.761719 138.417969 359.03125 138.4375 359.304688 138.484375 C 361.882812 138.929688 363.621094 141.386719 363.175781 143.96875 C 362.78125 146.285156 360.777344 147.917969 358.507812 147.917969 " fill-opacity="1" fill-rule="nonzero"/><path fill="#70d0e0" d="M 16.277344 238.492188 C 16.011719 238.492188 15.742188 238.46875 15.472656 238.425781 C 12.890625 237.984375 11.148438 235.523438 11.59375 232.9375 C 11.988281 230.625 13.992188 228.988281 16.261719 228.988281 C 16.53125 228.988281 16.800781 229.011719 17.074219 229.058594 C 19.65625 229.5 21.390625 231.957031 20.949219 234.539062 C 20.554688 236.859375 18.542969 238.492188 16.277344 238.492188 " fill-opacity="1" fill-rule="nonzero"/><path fill="#433e3f" d="M 197.210938 237.375 L 177.558594 237.375 L 165.203125 298.15625 L 209.566406 298.15625 L 197.210938 237.375 " fill-opacity="1" fill-rule="nonzero"/><path fill="#5d585a" d="M 73.328125 265.195312 L 301.4375 265.195312 L 301.4375 106.425781 L 73.328125 106.425781 Z M 73.328125 265.195312 " fill-opacity="1" fill-rule="nonzero"/><path fill="#188395" d="M 79.957031 252.960938 L 294.816406 252.960938 L 294.816406 114.542969 L 79.957031 114.542969 Z M 79.957031 252.960938 " fill-opacity="1" fill-rule="nonzero"/><path fill="#21b6cb" d="M 83.226562 249.507812 L 291.542969 249.507812 L 291.542969 117.992188 L 83.226562 117.992188 Z M 83.226562 249.507812 " fill-opacity="1" fill-rule="nonzero"/><path fill="#5d585a" d="M 229.769531 290.464844 L 144.996094 290.464844 L 144.996094 298.15625 L 229.769531 298.15625 L 229.769531 290.464844 " fill-opacity="1" fill-rule="nonzero"/><path fill="#433e3f" d="M 287.964844 259 C 287.964844 261.5 285.9375 263.527344 283.441406 263.527344 C 280.941406 263.527344 278.917969 261.5 278.917969 259 C 278.917969 256.492188 280.941406 254.464844 283.441406 254.464844 C 285.9375 254.464844 287.964844 256.492188 287.964844 259 " fill-opacity="1" fill-rule="nonzero"/><path fill="#433e3f" d="M 274.632812 259 C 274.632812 260.148438 273.695312 261.082031 272.546875 261.082031 C 271.398438 261.082031 270.460938 260.148438 270.460938 259 C 270.460938 257.84375 271.398438 256.910156 272.546875 256.910156 C 273.695312 256.910156 274.632812 257.84375 274.632812 259 " fill-opacity="1" fill-rule="nonzero"/><path fill="#433e3f" d="M 264.273438 259 C 264.273438 260.148438 263.339844 261.082031 262.191406 261.082031 C 261.03125 261.082031 260.097656 260.148438 260.097656 259 C 260.097656 257.84375 261.03125 256.910156 262.191406 256.910156 C 263.339844 256.910156 264.273438 257.84375 264.273438 259 " fill-opacity="1" fill-rule="nonzero"/><path fill="#2f3f62" d="M 38.636719 289.214844 L 120.625 289.214844 L 120.625 261.691406 L 38.636719 261.691406 Z M 38.636719 289.214844 " fill-opacity="1" fill-rule="nonzero"/><path fill="#918f8f" d="M 85.019531 273.363281 L 114.851562 273.363281 L 114.851562 267.265625 L 85.019531 267.265625 Z M 85.019531 273.363281 " fill-opacity="1" fill-rule="nonzero"/><path fill="#e6432a" d="M 38.636719 268.820312 L 45.507812 268.820312 L 45.507812 264.664062 L 38.636719 264.664062 Z M 38.636719 268.820312 " fill-opacity="1" fill-rule="nonzero"/><path fill="#b2331f" d="M 38.636719 265.402344 L 45.507812 265.402344 L 45.507812 264.664062 L 38.636719 264.664062 Z M 38.636719 265.402344 " fill-opacity="1" fill-rule="nonzero"/><path fill="#b2331f" d="M 38.636719 268.820312 L 45.507812 268.820312 L 45.507812 268.085938 L 38.636719 268.085938 Z M 38.636719 268.820312 " fill-opacity="1" fill-rule="nonzero"/><path fill="#21b6cb" d="M 38.636719 273.734375 L 45.507812 273.734375 L 45.507812 269.582031 L 38.636719 269.582031 Z M 38.636719 273.734375 " fill-opacity="1" fill-rule="nonzero"/><path fill="#198b9e" d="M 38.636719 270.316406 L 45.507812 270.316406 L 45.507812 269.582031 L 38.636719 269.582031 Z M 38.636719 270.316406 " fill-opacity="1" fill-rule="nonzero"/><path fill="#198b9e" d="M 38.636719 273.734375 L 45.507812 273.734375 L 45.507812 273 L 38.636719 273 Z M 38.636719 273.734375 " fill-opacity="1" fill-rule="nonzero"/><path fill="#21b6cb" d="M 38.636719 278.652344 L 45.507812 278.652344 L 45.507812 274.492188 L 38.636719 274.492188 Z M 38.636719 278.652344 " fill-opacity="1" fill-rule="nonzero"/><path fill="#198b9e" d="M 38.636719 275.230469 L 45.507812 275.230469 L 45.507812 274.492188 L 38.636719 274.492188 Z M 38.636719 275.230469 " fill-opacity="1" fill-rule="nonzero"/><path fill="#198b9e" d="M 38.636719 278.652344 L 45.507812 278.652344 L 45.507812 277.917969 L 38.636719 277.917969 Z M 38.636719 278.652344 " fill-opacity="1" fill-rule="nonzero"/><path fill="#21b6cb" d="M 112.144531 281.582031 C 112.144531 283.84375 110.308594 285.683594 108.050781 285.683594 C 105.789062 285.683594 103.957031 283.84375 103.957031 281.582031 C 103.957031 279.316406 105.789062 277.480469 108.050781 277.480469 C 110.308594 277.480469 112.144531 279.316406 112.144531 281.582031 " fill-opacity="1" fill-rule="nonzero"/><path fill="#21b6cb" d="M 99.011719 281.582031 C 99.011719 282.609375 98.179688 283.445312 97.15625 283.445312 C 96.121094 283.445312 95.292969 282.609375 95.292969 281.582031 C 95.292969 280.550781 96.121094 279.71875 97.15625 279.71875 C 98.179688 279.71875 99.011719 280.550781 99.011719 281.582031 " fill-opacity="1" fill-rule="nonzero"/><path fill="#21b6cb" d="M 91.535156 281.582031 C 91.535156 282.609375 90.699219 283.445312 89.671875 283.445312 C 88.648438 283.445312 87.8125 282.609375 87.8125 281.582031 C 87.8125 280.550781 88.648438 279.71875 89.671875 279.71875 C 90.699219 279.71875 91.535156 280.550781 91.535156 281.582031 " fill-opacity="1" fill-rule="nonzero"/><path fill="#141b2a" d="M 120.625 289.214844 L 38.636719 289.214844 L 104.238281 283.074219 C 104.832031 284.601562 106.316406 285.683594 108.050781 285.683594 C 110.308594 285.683594 112.144531 283.84375 112.144531 281.582031 C 112.144531 281.425781 112.136719 281.269531 112.121094 281.117188 L 120.625 261.691406 L 120.625 289.214844 " fill-opacity="1" fill-rule="nonzero"/><path fill="#105362" d="M 108.050781 285.683594 C 106.316406 285.683594 104.832031 284.601562 104.238281 283.074219 L 111.5625 282.390625 L 112.121094 281.117188 C 112.136719 281.269531 112.144531 281.425781 112.144531 281.582031 C 112.144531 283.84375 110.308594 285.683594 108.050781 285.683594 " fill-opacity="1" fill-rule="nonzero"/><path fill="#2f3f62" d="M 38.636719 259.410156 L 120.625 259.410156 L 120.625 231.882812 L 38.636719 231.882812 Z M 38.636719 259.410156 " fill-opacity="1" fill-rule="nonzero"/><path fill="#918f8f" d="M 85.019531 243.554688 L 85.019531 237.460938 L 114.851562 237.460938 L 114.851562 243.554688 L 85.019531 243.554688 " fill-opacity="1" fill-rule="nonzero"/><path fill="#e6432a" d="M 38.636719 239.011719 L 45.507812 239.011719 L 45.507812 234.855469 L 38.636719 234.855469 Z M 38.636719 239.011719 " fill-opacity="1" fill-rule="nonzero"/><path fill="#b2331f" d="M 38.636719 235.59375 L 45.507812 235.59375 L 45.507812 234.855469 L 38.636719 234.855469 Z M 38.636719 235.59375 " fill-opacity="1" fill-rule="nonzero"/><path fill="#b2331f" d="M 38.636719 239.011719 L 45.507812 239.011719 L 45.507812 238.277344 L 38.636719 238.277344 Z M 38.636719 239.011719 " fill-opacity="1" fill-rule="nonzero"/><path fill="#21b6cb" d="M 38.636719 243.929688 L 45.507812 243.929688 L 45.507812 239.769531 L 38.636719 239.769531 Z M 38.636719 243.929688 " fill-opacity="1" fill-rule="nonzero"/><path fill="#198b9e" d="M 38.636719 240.507812 L 45.507812 240.507812 L 45.507812 239.769531 L 38.636719 239.769531 Z M 38.636719 240.507812 " fill-opacity="1" fill-rule="nonzero"/><path fill="#198b9e" d="M 38.636719 243.929688 L 45.507812 243.929688 L 45.507812 243.195312 L 38.636719 243.195312 Z M 38.636719 243.929688 " fill-opacity="1" fill-rule="nonzero"/><path fill="#21b6cb" d="M 38.636719 248.84375 L 45.507812 248.84375 L 45.507812 244.6875 L 38.636719 244.6875 Z M 38.636719 248.84375 " fill-opacity="1" fill-rule="nonzero"/><path fill="#198b9e" d="M 38.636719 245.421875 L 45.507812 245.421875 L 45.507812 244.6875 L 38.636719 244.6875 Z M 38.636719 245.421875 " fill-opacity="1" fill-rule="nonzero"/><path fill="#198b9e" d="M 38.636719 248.84375 L 45.507812 248.84375 L 45.507812 248.105469 L 38.636719 248.105469 Z M 38.636719 248.84375 " fill-opacity="1" fill-rule="nonzero"/><path fill="#21b6cb" d="M 112.144531 251.769531 C 112.144531 254.039062 110.308594 255.871094 108.050781 255.871094 C 105.789062 255.871094 103.957031 254.039062 103.957031 251.769531 C 103.957031 249.507812 105.789062 247.671875 108.050781 247.671875 C 110.308594 247.671875 112.144531 249.507812 112.144531 251.769531 " fill-opacity="1" fill-rule="nonzero"/><path fill="#21b6cb" d="M 99.011719 251.769531 C 99.011719 252.800781 98.179688 253.632812 97.15625 253.632812 C 96.121094 253.632812 95.292969 252.800781 95.292969 251.769531 C 95.292969 250.746094 96.121094 249.910156 97.15625 249.910156 C 98.179688 249.910156 99.011719 250.746094 99.011719 251.769531 " fill-opacity="1" fill-rule="nonzero"/><path fill="#21b6cb" d="M 91.535156 251.769531 C 91.535156 252.800781 90.699219 253.632812 89.671875 253.632812 C 88.648438 253.632812 87.8125 252.800781 87.8125 251.769531 C 87.8125 250.746094 88.648438 249.910156 89.671875 249.910156 C 90.699219 249.910156 91.535156 250.746094 91.535156 251.769531 " fill-opacity="1" fill-rule="nonzero"/><path fill="#141b2a" d="M 120.625 259.410156 L 38.636719 259.410156 L 104.238281 253.265625 C 104.832031 254.789062 106.316406 255.871094 108.050781 255.871094 C 110.308594 255.871094 112.144531 254.039062 112.144531 251.769531 C 112.144531 251.613281 112.136719 251.457031 112.121094 251.304688 L 120.625 231.882812 L 120.625 259.410156 " fill-opacity="1" fill-rule="nonzero"/><path fill="#105362" d="M 108.050781 255.871094 C 106.316406 255.871094 104.832031 254.789062 104.238281 253.265625 L 111.5625 252.578125 L 112.121094 251.304688 C 112.136719 251.457031 112.144531 251.613281 112.144531 251.769531 C 112.144531 254.039062 110.308594 255.871094 108.050781 255.871094 " fill-opacity="1" fill-rule="nonzero"/><path fill="#2f3f62" d="M 38.636719 229.601562 L 120.625 229.601562 L 120.625 202.078125 L 38.636719 202.078125 Z M 38.636719 229.601562 " fill-opacity="1" fill-rule="nonzero"/><path fill="#918f8f" d="M 85.019531 213.746094 L 114.851562 213.746094 L 114.851562 207.648438 L 85.019531 207.648438 Z M 85.019531 213.746094 " fill-opacity="1" fill-rule="nonzero"/><path fill="#e6432a" d="M 38.636719 209.207031 L 45.507812 209.207031 L 45.507812 205.046875 L 38.636719 205.046875 Z M 38.636719 209.207031 " fill-opacity="1" fill-rule="nonzero"/><path fill="#b2331f" d="M 38.636719 205.78125 L 45.507812 205.78125 L 45.507812 205.046875 L 38.636719 205.046875 Z M 38.636719 205.78125 " fill-opacity="1" fill-rule="nonzero"/><path fill="#b2331f" d="M 38.636719 209.207031 L 45.507812 209.207031 L 45.507812 208.464844 L 38.636719 208.464844 Z M 38.636719 209.207031 " fill-opacity="1" fill-rule="nonzero"/><path fill="#21b6cb" d="M 38.636719 214.121094 L 45.507812 214.121094 L 45.507812 209.960938 L 38.636719 209.960938 Z M 38.636719 214.121094 " fill-opacity="1" fill-rule="nonzero"/><path fill="#198b9e" d="M 38.636719 210.699219 L 45.507812 210.699219 L 45.507812 209.960938 L 38.636719 209.960938 Z M 38.636719 210.699219 " fill-opacity="1" fill-rule="nonzero"/><path fill="#198b9e" d="M 38.636719 214.121094 L 45.507812 214.121094 L 45.507812 213.382812 L 38.636719 213.382812 Z M 38.636719 214.121094 " fill-opacity="1" fill-rule="nonzero"/><path fill="#21b6cb" d="M 38.636719 219.035156 L 45.507812 219.035156 L 45.507812 214.878906 L 38.636719 214.878906 Z M 38.636719 219.035156 " fill-opacity="1" fill-rule="nonzero"/><path fill="#198b9e" d="M 38.636719 215.613281 L 45.507812 215.613281 L 45.507812 214.878906 L 38.636719 214.878906 Z M 38.636719 215.613281 " fill-opacity="1" fill-rule="nonzero"/><path fill="#198b9e" d="M 38.636719 219.035156 L 45.507812 219.035156 L 45.507812 218.296875 L 38.636719 218.296875 Z M 38.636719 219.035156 " fill-opacity="1" fill-rule="nonzero"/><path fill="#21b6cb" d="M 112.144531 221.964844 C 112.144531 224.230469 110.308594 226.066406 108.050781 226.066406 C 105.789062 226.066406 103.957031 224.230469 103.957031 221.964844 C 103.957031 219.695312 105.789062 217.863281 108.050781 217.863281 C 110.308594 217.863281 112.144531 219.695312 112.144531 221.964844 " fill-opacity="1" fill-rule="nonzero"/><path fill="#21b6cb" d="M 99.011719 221.964844 C 99.011719 222.992188 98.179688 223.824219 97.15625 223.824219 C 96.121094 223.824219 95.292969 222.992188 95.292969 221.964844 C 95.292969 220.933594 96.121094 220.101562 97.15625 220.101562 C 98.179688 220.101562 99.011719 220.933594 99.011719 221.964844 " fill-opacity="1" fill-rule="nonzero"/><path fill="#21b6cb" d="M 91.535156 221.964844 C 91.535156 222.992188 90.699219 223.824219 89.671875 223.824219 C 88.648438 223.824219 87.8125 222.992188 87.8125 221.964844 C 87.8125 220.933594 88.648438 220.101562 89.671875 220.101562 C 90.699219 220.101562 91.535156 220.933594 91.535156 221.964844 " fill-opacity="1" fill-rule="nonzero"/><path fill="#141b2a" d="M 120.625 229.601562 L 38.636719 229.601562 L 104.238281 223.453125 C 104.832031 224.984375 106.316406 226.066406 108.050781 226.066406 C 110.308594 226.066406 112.144531 224.230469 112.144531 221.964844 C 112.144531 221.804688 112.136719 221.648438 112.121094 221.496094 L 120.625 202.078125 L 120.625 229.601562 " fill-opacity="1" fill-rule="nonzero"/><path fill="#105362" d="M 108.050781 226.066406 C 106.316406 226.066406 104.832031 224.984375 104.238281 223.453125 L 111.5625 222.769531 L 112.121094 221.496094 C 112.136719 221.648438 112.144531 221.804688 112.144531 221.964844 C 112.144531 224.230469 110.308594 226.066406 108.050781 226.066406 " fill-opacity="1" fill-rule="nonzero"/><path fill="#232f48" d="M 125.960938 261.191406 C 125.960938 263.109375 124.402344 264.664062 122.488281 264.664062 L 36.773438 264.664062 C 34.859375 264.664062 33.300781 263.109375 33.300781 261.191406 C 33.300781 259.269531 34.859375 257.714844 36.773438 257.714844 L 122.488281 257.714844 C 124.402344 257.714844 125.960938 259.269531 125.960938 261.191406 " fill-opacity="1" fill-rule="nonzero"/><path fill="#232f48" d="M 125.960938 229.601562 C 125.960938 231.515625 124.402344 233.074219 122.488281 233.074219 L 36.773438 233.074219 C 34.859375 233.074219 33.300781 231.515625 33.300781 229.601562 C 33.300781 227.683594 34.859375 226.125 36.773438 226.125 L 122.488281 226.125 C 124.402344 226.125 125.960938 227.683594 125.960938 229.601562 " fill-opacity="1" fill-rule="nonzero"/><path fill="#232f48" d="M 125.960938 198.601562 C 125.960938 200.523438 124.402344 202.078125 122.488281 202.078125 L 36.773438 202.078125 C 34.859375 202.078125 33.300781 200.523438 33.300781 198.601562 C 33.300781 196.683594 34.859375 195.128906 36.773438 195.128906 L 122.488281 195.128906 C 124.402344 195.128906 125.960938 196.683594 125.960938 198.601562 " fill-opacity="1" fill-rule="nonzero"/><path fill="#232f48" d="M 125.960938 291.257812 C 125.960938 293.179688 124.402344 294.734375 122.488281 294.734375 L 36.773438 294.734375 C 34.859375 294.734375 33.300781 293.179688 33.300781 291.257812 C 33.300781 289.34375 34.859375 287.785156 36.773438 287.785156 L 122.488281 287.785156 C 124.402344 287.785156 125.960938 289.34375 125.960938 291.257812 " fill-opacity="1" fill-rule="nonzero"/><path fill="#b9b7b8" d="M 247.667969 210.550781 L 349.394531 210.550781 L 349.394531 139.980469 L 247.667969 139.980469 Z M 247.667969 210.550781 " fill-opacity="1" fill-rule="nonzero"/><path fill="#ffffff" d="M 250.6875 210.550781 L 346.375 210.550781 L 346.375 144.167969 L 250.6875 144.167969 Z M 250.6875 210.550781 " fill-opacity="1" fill-rule="nonzero"/><path fill="#ea8523" d="M 345.089844 147.257812 L 339.941406 137.882812 L 315.078125 137.882812 L 309.925781 147.257812 L 254.199219 147.257812 L 254.199219 213.433594 L 350.34375 213.433594 L 350.34375 147.257812 L 345.089844 147.257812 " fill-opacity="1" fill-rule="nonzero"/><path fill="#b7671b" d="M 350.34375 213.433594 L 254.199219 213.433594 L 333.464844 201.71875 L 350.34375 147.257812 L 350.34375 213.433594 " fill-opacity="1" fill-rule="nonzero"/><path fill="#ffffff" d="M 312.695312 153.695312 C 312.695312 154.425781 312.105469 155.015625 311.382812 155.015625 L 260.195312 155.015625 C 259.46875 155.015625 258.878906 154.425781 258.878906 153.695312 C 258.878906 152.96875 259.46875 152.378906 260.195312 152.378906 L 311.382812 152.378906 C 312.105469 152.378906 312.695312 152.96875 312.695312 153.695312 " fill-opacity="1" fill-rule="nonzero"/><path fill="#ffffff" d="M 312.695312 159.410156 C 312.695312 160.132812 312.105469 160.722656 311.382812 160.722656 L 260.195312 160.722656 C 259.46875 160.722656 258.878906 160.132812 258.878906 159.410156 C 258.878906 158.679688 259.46875 158.089844 260.195312 158.089844 L 311.382812 158.089844 C 312.105469 158.089844 312.695312 158.679688 312.695312 159.410156 " fill-opacity="1" fill-rule="nonzero"/><path fill="#ffffff" d="M 312.695312 165.117188 C 312.695312 165.84375 312.105469 166.433594 311.382812 166.433594 L 260.195312 166.433594 C 259.46875 166.433594 258.878906 165.84375 258.878906 165.117188 C 258.878906 164.390625 259.46875 163.800781 260.195312 163.800781 L 311.382812 163.800781 C 312.105469 163.800781 312.695312 164.390625 312.695312 165.117188 " fill-opacity="1" fill-rule="nonzero"/><g clip-path="url(#d590ecb273)"><path fill="#ffffff" d="M 176.800781 58.859375 C 176.800781 37.789062 159.742188 20.707031 138.695312 20.707031 C 126.207031 20.707031 115.125 26.722656 108.171875 36.019531 C 102.664062 32.066406 95.917969 29.726562 88.621094 29.726562 C 72.441406 29.726562 58.941406 41.179688 55.742188 56.425781 C 52.789062 54.898438 49.449219 54.019531 45.898438 54.019531 C 34.042969 54.019531 24.425781 63.644531 24.425781 75.515625 C 24.425781 85.949219 31.855469 94.644531 41.710938 96.589844 L 41.710938 97.007812 L 176.800781 97.007812 L 166.859375 84.554688 C 173.035156 77.773438 176.800781 68.757812 176.800781 58.859375 " fill-opacity="1" fill-rule="nonzero"/></g><path fill="#bdbbbc" d="M 134.503906 97.007812 L 128.128906 97.007812 L 128.128906 87.976562 L 144.257812 87.976562 L 140.785156 81.949219 C 143.664062 81.882812 146.457031 81.460938 149.117188 80.71875 L 149.117188 94.378906 L 132.988281 94.378906 L 134.503906 97.007812 M 114.488281 97.007812 L 46.292969 97.007812 C 54.730469 94.65625 61.5625 88.453125 64.742188 80.390625 C 70.335938 84.429688 77.195312 86.816406 84.617188 86.816406 C 90.832031 86.816406 96.664062 85.144531 101.675781 82.222656 L 98.359375 87.976562 L 114.488281 87.976562 L 114.488281 97.007812 M 174.703125 94.378906 L 162.757812 94.378906 L 162.757812 73.203125 C 169.652344 66.976562 173.992188 57.960938 173.992188 47.925781 C 173.992188 46.550781 173.902344 45.195312 173.742188 43.863281 C 175.6875 48.414062 176.777344 53.414062 176.800781 58.671875 C 176.800781 58.691406 176.800781 58.707031 176.800781 58.726562 C 176.800781 58.730469 176.800781 58.734375 176.800781 58.734375 C 176.800781 58.753906 176.800781 58.769531 176.800781 58.785156 C 176.800781 58.789062 176.800781 58.789062 176.800781 58.792969 C 176.800781 58.816406 176.800781 58.835938 176.800781 58.859375 C 176.800781 68.757812 173.035156 77.773438 166.859375 84.554688 L 174.703125 94.378906 " fill-opacity="1" fill-rule="nonzero"/><path fill="#32486b" d="M 144.257812 87.976562 L 121.308594 48.179688 L 98.359375 87.976562 L 114.488281 87.976562 L 114.488281 110.722656 C 114.488281 114.492188 117.542969 117.550781 121.308594 117.550781 C 125.078125 117.550781 128.128906 114.492188 128.128906 110.722656 L 128.128906 87.976562 L 144.257812 87.976562 " fill-opacity="1" fill-rule="nonzero"/><path fill="#484345" d="M 128.125 110.746094 C 128.128906 110.738281 128.128906 110.730469 128.128906 110.722656 L 128.128906 106.425781 L 128.128906 110.722656 C 128.128906 110.730469 128.128906 110.738281 128.125 110.746094 " fill-opacity="1" fill-rule="nonzero"/><path fill="#24344c" d="M 121.710938 117.507812 L 121.710938 48.882812 L 144.257812 87.976562 L 128.128906 87.976562 L 128.128906 110.722656 C 128.128906 110.730469 128.128906 110.738281 128.125 110.746094 C 128.125 110.746094 128.125 110.75 128.125 110.753906 C 128.125 110.757812 128.125 110.761719 128.125 110.765625 C 128.125 110.769531 128.125 110.773438 128.125 110.777344 C 128.125 110.777344 128.125 110.78125 128.125 110.785156 C 128.125 110.789062 128.125 110.792969 128.125 110.800781 C 128.125 110.800781 128.125 110.804688 128.125 110.804688 C 128.125 110.8125 128.125 110.816406 128.125 110.824219 C 128.125 110.824219 128.125 110.828125 128.125 110.828125 C 128.125 110.835938 128.125 110.839844 128.125 110.847656 C 128.125 110.855469 128.125 110.863281 128.125 110.871094 C 128.050781 114.429688 125.238281 117.296875 121.710938 117.507812 " fill-opacity="1" fill-rule="nonzero"/><path fill="#e6432a" d="M 178.886719 94.378906 L 155.9375 134.171875 L 132.988281 94.378906 L 149.117188 94.378906 L 149.117188 71.632812 C 149.117188 67.863281 152.167969 64.804688 155.9375 64.804688 C 159.703125 64.804688 162.757812 67.863281 162.757812 71.632812 L 162.757812 94.378906 L 178.886719 94.378906 " fill-opacity="1" fill-rule="nonzero"/><path fill="#aa301d" d="M 156.34375 133.472656 L 156.34375 64.847656 C 159.859375 65.058594 162.671875 67.910156 162.757812 71.460938 C 162.757812 71.46875 162.757812 71.476562 162.757812 71.484375 C 162.757812 71.492188 162.757812 71.5 162.757812 71.503906 C 162.757812 71.507812 162.757812 71.507812 162.757812 71.507812 C 162.757812 71.515625 162.757812 71.519531 162.757812 71.527344 C 162.757812 71.527344 162.757812 71.53125 162.757812 71.53125 C 162.757812 71.539062 162.757812 71.542969 162.757812 71.546875 C 162.757812 71.550781 162.757812 71.554688 162.757812 71.554688 C 162.757812 71.5625 162.757812 71.566406 162.757812 71.570312 C 162.757812 71.574219 162.757812 71.574219 162.757812 71.578125 C 162.757812 71.582031 162.757812 71.585938 162.757812 71.589844 C 162.757812 71.59375 162.757812 71.597656 162.757812 71.601562 C 162.757812 71.601562 162.757812 71.605469 162.757812 71.609375 C 162.757812 71.617188 162.757812 71.625 162.757812 71.632812 L 162.757812 94.378906 L 178.886719 94.378906 L 156.34375 133.472656 " fill-opacity="1" fill-rule="nonzero"/><g clip-path="url(#ea8b3bf56a)"><path fill="#ffffff" d="M 169.605469 349.625 L 169.734375 349.347656 L 169.84375 349.03125 L 169.921875 348.753906 L 169.992188 348.34375 L 170.011719 348.082031 L 170.03125 347.65625 L 170.03125 347.0625 L 170.011719 346.765625 L 169.957031 346.339844 L 169.882812 346.0625 L 169.84375 345.945312 L 169.695312 345.667969 L 169.417969 345.28125 L 169.328125 345.1875 L 169.140625 344.980469 L 168.9375 344.777344 L 168.714844 344.613281 L 168.304688 344.367188 L 168.046875 344.257812 L 167.785156 344.199219 L 167.488281 344.148438 L 167.027344 344.128906 L 166.710938 344.109375 L 166.246094 344.109375 L 165.839844 344.089844 L 165.5625 344.109375 L 165.152344 344.167969 L 164.949219 344.21875 L 164.855469 344.316406 L 164.800781 344.535156 L 164.78125 344.703125 L 164.765625 344.980469 L 164.800781 345.539062 L 164.816406 345.835938 L 164.855469 346.242188 L 164.890625 346.542969 L 164.914062 346.839844 L 164.914062 347.136719 L 164.890625 347.542969 L 164.890625 348.4375 L 164.875 348.753906 L 164.855469 349.050781 L 164.816406 349.457031 L 164.816406 349.714844 L 164.800781 350.144531 L 164.816406 350.421875 L 164.875 350.867188 L 164.949219 351.074219 L 165.058594 351.164062 L 165.28125 351.183594 L 167.007812 351.074219 L 167.433594 351.054688 L 167.730469 350.996094 L 168.046875 350.90625 L 168.339844 350.796875 L 168.621094 350.664062 L 168.863281 350.5 L 169.195312 350.199219 L 169.382812 349.976562 Z M 173.832031 348.027344 L 173.816406 348.34375 L 173.792969 348.789062 L 173.738281 349.085938 L 173.609375 349.515625 L 173.515625 349.8125 L 173.410156 350.089844 L 173.292969 350.386719 L 173.183594 350.699219 L 173.070312 350.980469 L 172.867188 351.390625 L 172.71875 351.628906 L 172.460938 351.925781 L 172.273438 352.128906 L 171.957031 352.425781 L 171.550781 352.835938 L 171.308594 353.039062 L 170.957031 353.320312 L 170.714844 353.46875 L 170.34375 353.671875 L 170.101562 353.785156 L 169.695312 353.933594 L 169.417969 354.023438 L 169.121094 354.101562 L 168.824219 354.152344 L 167.691406 354.320312 L 167.414062 354.339844 L 167.007812 354.378906 L 166.710938 354.378906 L 166.117188 354.359375 L 165.632812 354.320312 L 165.335938 354.320312 L 164.742188 354.359375 L 164.28125 354.378906 L 163.964844 354.398438 L 163.6875 354.378906 L 162.390625 354.378906 L 162.109375 354.359375 L 161.316406 354.285156 L 161.164062 354.210938 L 161.070312 354.121094 L 161.035156 353.914062 L 161.019531 353.617188 L 161.035156 353.46875 L 161.070312 352.910156 L 161.070312 352.652344 L 161.089844 352.226562 L 161.089844 351.945312 L 161.109375 351.648438 L 161.109375 351.351562 L 161.089844 350.367188 L 161.089844 350.070312 L 161.050781 349.085938 L 161.070312 348.804688 L 161.089844 348.398438 L 161.128906 348.121094 L 161.148438 347.808594 L 161.148438 347.507812 L 161.109375 347.023438 L 161.089844 346.707031 L 161.089844 346.542969 L 161.070312 346.226562 L 161.148438 345.242188 L 161.148438 344.945312 L 161.128906 343.960938 L 161.128906 343.664062 L 161.070312 342.679688 L 161.070312 341.957031 L 161.089844 341.65625 L 161.148438 341.378906 L 161.183594 341.175781 L 161.257812 341.0625 L 161.464844 341.011719 L 161.777344 340.972656 L 162.054688 340.933594 L 162.351562 340.917969 L 163.984375 340.933594 L 164.28125 340.933594 L 165.171875 340.992188 L 165.320312 341.011719 L 165.652344 341.011719 L 166.433594 340.972656 L 166.710938 340.953125 L 167.007812 340.953125 L 167.472656 340.992188 L 168.0625 341.023438 L 168.363281 341.0625 L 168.84375 341.140625 L 169.140625 341.191406 L 169.417969 341.269531 L 170.089844 341.507812 L 170.367188 341.640625 L 170.644531 341.789062 L 170.902344 341.9375 L 171.511719 342.363281 L 171.757812 342.570312 L 171.976562 342.757812 L 172.386719 343.144531 L 172.570312 343.332031 L 172.738281 343.535156 L 172.867188 343.777344 L 173.070312 344.183594 L 173.183594 344.464844 L 173.273438 344.761719 L 173.386719 345.058594 L 173.480469 345.355469 L 173.554688 345.652344 L 173.628906 346.0625 L 173.6875 346.355469 L 173.738281 346.671875 L 173.777344 346.96875 L 173.792969 347.414062 L 173.816406 347.710938 L 173.832031 348.027344 " fill-opacity="1" fill-rule="nonzero"/></g><g clip-path="url(#032d83ccd1)"><path fill="#ffffff" d="M 183.085938 348.605469 L 183.011719 348.363281 L 182.601562 347.097656 L 182.511719 346.820312 L 182.140625 345.726562 L 182.042969 345.484375 L 181.863281 345.355469 L 181.621094 345.296875 L 181.417969 345.355469 L 181.230469 345.539062 L 180.730469 346.800781 L 180.617188 347.078125 L 180.136719 348.324219 L 180.078125 348.605469 L 180.136719 348.824219 L 180.339844 348.921875 L 180.601562 348.953125 L 181.769531 348.953125 L 182.636719 349.011719 L 182.882812 348.933594 L 183.03125 348.789062 Z M 189.277344 353.839844 L 189.335938 354.101562 L 189.207031 354.300781 L 189 354.398438 L 188.761719 354.4375 L 188.5 354.4375 L 188.074219 354.398438 L 187.792969 354.378906 L 186.960938 354.378906 L 185.808594 354.449219 L 185.570312 354.359375 L 185.460938 354.230469 L 185.363281 354.023438 L 184.789062 352.464844 L 184.664062 352.28125 L 184.496094 352.242188 L 183.160156 352.148438 L 182.863281 352.148438 L 181.46875 352.113281 L 180.359375 352.09375 L 180.078125 352.09375 L 179.800781 352.113281 L 178.949219 352.113281 L 178.710938 352.148438 L 178.558594 352.242188 L 178.449219 352.464844 L 178.019531 353.726562 L 177.910156 354.023438 L 177.707031 354.269531 L 177.429688 354.359375 L 177.132812 354.359375 L 176.054688 354.300781 L 175.757812 354.300781 L 174.609375 354.378906 L 174.367188 354.398438 L 174.148438 354.285156 L 173.996094 354.082031 L 174.019531 353.839844 L 174.050781 353.6875 L 174.164062 353.394531 L 174.425781 352.820312 L 174.535156 352.542969 L 175 351.5 L 175.109375 351.242188 L 175.59375 350.199219 L 175.699219 349.921875 L 176.132812 348.921875 L 176.242188 348.640625 L 176.746094 347.601562 L 176.855469 347.339844 L 177.519531 345.816406 L 178.042969 344.703125 L 178.167969 344.40625 L 178.574219 343.570312 L 178.710938 343.273438 L 179.058594 342.421875 L 179.171875 342.140625 L 179.503906 341.378906 L 179.597656 341.175781 L 179.78125 341.0625 L 180.066406 341.011719 L 180.917969 340.972656 L 182.359375 340.972656 L 183.214844 340.992188 L 183.53125 341.042969 L 183.734375 341.191406 L 183.828125 341.4375 L 184.089844 342.160156 L 184.195312 342.441406 L 184.664062 343.3125 L 184.773438 343.570312 L 185.183594 344.484375 L 185.292969 344.742188 L 185.628906 345.6875 L 185.738281 345.945312 L 186.144531 346.839844 L 186.257812 347.097656 L 186.664062 348.007812 L 186.777344 348.269531 L 187.148438 349.199219 L 187.261719 349.457031 L 187.835938 350.609375 L 188.277344 351.480469 L 188.40625 351.742188 L 188.910156 352.910156 L 189.277344 353.839844 " fill-opacity="1" fill-rule="nonzero"/></g><g clip-path="url(#fe41154b5f)"><path fill="#ffffff" d="M 199.421875 342.441406 L 199.402344 342.71875 L 199.421875 343.273438 L 199.402344 343.570312 L 199.386719 343.71875 L 199.347656 343.941406 L 199.292969 344.070312 L 199.183594 344.167969 L 198.957031 344.199219 L 198.664062 344.199219 L 198.105469 344.148438 L 197.808594 344.128906 L 196.957031 344.183594 L 196.660156 344.183594 L 196.199219 344.148438 L 195.921875 344.148438 L 195.785156 344.167969 L 195.601562 344.21875 L 195.527344 344.335938 L 195.507812 344.574219 L 195.4375 345.667969 L 195.4375 345.964844 L 195.507812 347.078125 L 195.488281 347.375 L 195.417969 348.492188 L 195.398438 348.789062 L 195.4375 349.882812 L 195.4375 351.59375 L 195.398438 352.691406 L 195.417969 352.96875 L 195.507812 353.804688 L 195.527344 354.101562 L 195.46875 354.320312 L 195.378906 354.417969 L 195.140625 354.449219 L 194.785156 354.4375 L 194.324219 354.378906 L 194.007812 354.359375 L 193.171875 354.417969 L 192.875 354.417969 L 192.042969 354.359375 L 191.820312 354.339844 L 191.703125 354.285156 L 191.671875 354.082031 L 191.671875 353.765625 L 191.726562 352.984375 L 191.742188 352.691406 L 191.742188 351.292969 L 191.761719 350.183594 L 191.761719 349.882812 L 191.78125 348.789062 L 191.78125 348.492188 L 191.703125 347.375 L 191.691406 347.078125 L 191.691406 345.667969 L 191.652344 344.574219 L 191.652344 344.316406 L 191.597656 344.167969 L 191.410156 344.128906 L 191.128906 344.128906 L 190.539062 344.167969 L 190.203125 344.167969 L 189.707031 344.128906 L 189.390625 344.109375 L 189.074219 344.128906 L 188.648438 344.148438 L 188.371094 344.148438 L 188.222656 344.128906 L 188.015625 344.089844 L 187.90625 344.019531 L 187.832031 343.90625 L 187.792969 343.71875 L 187.792969 343.589844 L 187.773438 343.292969 L 187.8125 342.738281 L 187.8125 342.457031 L 187.757812 341.753906 L 187.773438 341.457031 L 187.832031 341.210938 L 187.90625 341.082031 L 188.015625 341.023438 L 188.203125 340.992188 L 188.628906 340.992188 L 189.3125 341.042969 L 189.609375 341.042969 L 190.6875 340.972656 L 190.984375 340.972656 L 192.078125 341.0625 L 192.375 341.0625 L 193.75 340.972656 L 194.824219 340.992188 L 195.121094 340.992188 L 196.511719 340.972656 L 197.886719 340.972656 L 198.492188 340.933594 L 198.808594 340.953125 L 198.957031 340.972656 L 199.183594 341.011719 L 199.3125 341.082031 L 199.402344 341.210938 L 199.441406 341.4375 L 199.441406 341.566406 L 199.460938 341.84375 L 199.421875 342.441406 " fill-opacity="1" fill-rule="nonzero"/></g><g clip-path="url(#b0c00f6530)"><path fill="#ffffff" d="M 207.046875 348.605469 L 206.96875 348.363281 L 206.5625 347.097656 L 206.472656 346.820312 L 206.097656 345.726562 L 206.003906 345.484375 L 205.820312 345.355469 L 205.582031 345.296875 L 205.375 345.355469 L 205.1875 345.539062 L 204.6875 346.800781 L 204.574219 347.078125 L 204.09375 348.324219 L 204.042969 348.605469 L 204.09375 348.824219 L 204.296875 348.921875 L 204.558594 348.953125 L 205.726562 348.953125 L 206.601562 349.011719 L 206.839844 348.933594 L 206.988281 348.789062 Z M 213.238281 353.839844 L 213.292969 354.101562 L 213.164062 354.300781 L 212.964844 354.398438 L 212.71875 354.4375 L 212.460938 354.4375 L 212.035156 354.398438 L 211.757812 354.378906 L 210.917969 354.378906 L 209.769531 354.449219 L 209.527344 354.359375 L 209.417969 354.230469 L 209.324219 354.023438 L 208.753906 352.464844 L 208.621094 352.28125 L 208.457031 352.242188 L 208.230469 352.226562 L 207.117188 352.148438 L 206.820312 352.148438 L 205.429688 352.113281 L 204.320312 352.09375 L 204.042969 352.09375 L 203.761719 352.113281 L 202.90625 352.113281 L 202.667969 352.148438 L 202.519531 352.242188 L 202.410156 352.464844 L 201.976562 353.726562 L 201.871094 354.023438 L 201.664062 354.269531 L 201.386719 354.359375 L 201.089844 354.359375 L 200.011719 354.300781 L 199.71875 354.300781 L 198.566406 354.378906 L 198.328125 354.398438 L 198.105469 354.285156 L 197.953125 354.082031 L 197.976562 353.839844 L 198.011719 353.6875 L 198.121094 353.394531 L 198.382812 352.820312 L 198.492188 352.542969 L 198.957031 351.5 L 199.070312 351.242188 L 199.546875 350.199219 L 199.664062 349.921875 L 200.089844 348.921875 L 200.199219 348.640625 L 200.703125 347.601562 L 200.8125 347.339844 L 201.480469 345.816406 L 202 344.703125 L 202.128906 344.40625 L 202.539062 343.570312 L 202.667969 343.273438 L 203.019531 342.421875 L 203.132812 342.140625 L 203.46875 341.378906 L 203.554688 341.175781 L 203.746094 341.0625 L 204.019531 341.011719 L 204.871094 340.972656 L 206.320312 340.972656 L 207.171875 340.992188 L 207.492188 341.042969 L 207.695312 341.191406 L 207.785156 341.4375 L 208.046875 342.160156 L 208.15625 342.441406 L 208.621094 343.3125 L 208.734375 343.570312 L 209.140625 344.484375 L 209.25 344.742188 L 209.585938 345.6875 L 209.695312 345.945312 L 210.105469 346.839844 L 210.214844 347.097656 L 210.621094 348.007812 L 210.734375 348.269531 L 211.105469 349.199219 L 211.21875 349.457031 L 211.792969 350.609375 L 212.238281 351.480469 L 212.371094 351.742188 L 212.867188 352.910156 L 213.238281 353.839844 " fill-opacity="1" fill-rule="nonzero"/></g><path fill="#ffffff" d="M 178.863281 333.71875 L 178.851562 333.457031 L 178.792969 333.195312 L 178.644531 332.9375 L 178.535156 332.804688 L 178.289062 332.566406 L 177.996094 332.378906 L 177.71875 332.289062 L 177.589844 332.269531 L 177.328125 332.25 L 176.492188 332.289062 L 176.175781 332.308594 L 175.085938 332.308594 L 174.800781 332.324219 L 174.691406 332.324219 L 174.472656 332.359375 L 174.304688 332.4375 L 174.246094 332.507812 L 174.230469 332.695312 L 174.230469 333.105469 L 174.246094 333.402344 L 174.246094 333.738281 L 174.210938 334.183594 L 174.210938 334.460938 L 174.246094 334.664062 L 174.324219 334.773438 L 174.453125 334.851562 L 174.691406 334.867188 L 176.15625 334.851562 L 177.308594 334.8125 L 177.941406 334.773438 L 178.238281 334.738281 L 178.441406 334.644531 L 178.585938 334.515625 L 178.664062 334.402344 L 178.792969 334.125 L 178.851562 333.828125 Z M 174.191406 328.796875 L 174.210938 329.09375 L 174.246094 329.296875 L 174.324219 329.429688 L 174.472656 329.5 L 174.691406 329.519531 L 175.121094 329.519531 L 175.75 329.484375 L 176.066406 329.5 L 176.492188 329.519531 L 177.121094 329.558594 L 177.53125 329.558594 L 177.773438 329.5 L 177.996094 329.410156 L 178.179688 329.277344 L 178.308594 329.113281 L 178.417969 328.925781 L 178.476562 328.683594 L 178.476562 328.371094 L 178.417969 328.109375 L 178.257812 327.886719 L 177.996094 327.699219 L 177.882812 327.644531 L 177.605469 327.570312 L 177.476562 327.554688 L 177.160156 327.515625 L 176.992188 327.515625 L 176.699219 327.476562 L 176.269531 327.4375 L 175.992188 327.421875 L 175.085938 327.476562 L 174.839844 327.476562 L 174.65625 327.496094 L 174.488281 327.535156 L 174.378906 327.585938 L 174.304688 327.683594 L 174.246094 327.921875 L 174.191406 328.371094 L 174.175781 328.667969 Z M 182.613281 333.738281 L 182.597656 334.03125 L 182.558594 334.515625 L 182.5 334.792969 L 182.371094 335.183594 L 182.261719 335.445312 L 182.074219 335.796875 L 181.90625 336.039062 L 181.613281 336.371094 L 181.410156 336.578125 L 180.945312 336.910156 L 180.699219 337.074219 L 180.445312 337.207031 L 180.164062 337.339844 L 179.871094 337.429688 L 179.59375 337.523438 L 178.753906 337.691406 L 178.328125 337.746094 L 178.03125 337.765625 L 177.589844 337.800781 L 177.289062 337.800781 L 176.269531 337.839844 L 174.65625 337.839844 L 173.617188 337.78125 L 173.320312 337.78125 L 172.023438 337.800781 L 171.316406 337.800781 L 171.019531 337.765625 L 170.761719 337.726562 L 170.613281 337.671875 L 170.523438 337.578125 L 170.484375 337.375 L 170.464844 337.09375 L 170.484375 336.835938 L 170.484375 336.539062 L 170.5 336.390625 L 170.5 336.074219 L 170.554688 335.089844 L 170.539062 334.792969 L 170.523438 334.3125 L 170.5 333.996094 L 170.484375 333.828125 L 170.484375 333.511719 L 170.5 333.027344 L 170.5 332.230469 L 170.574219 331.246094 L 170.574219 330.949219 L 170.539062 329.964844 L 170.539062 329.667969 L 170.523438 328.683594 L 170.539062 328.386719 L 170.59375 327.402344 L 170.613281 327.109375 L 170.539062 326.121094 L 170.523438 325.824219 L 170.464844 325.265625 L 170.464844 324.824219 L 170.539062 324.597656 L 170.722656 324.488281 L 170.984375 324.429688 L 171.28125 324.414062 L 172.28125 324.414062 L 173.300781 324.378906 L 174.917969 324.46875 L 175.917969 324.429688 L 176.214844 324.429688 L 177.234375 324.449219 L 177.53125 324.449219 L 178.605469 324.523438 L 178.921875 324.5625 L 179.238281 324.617188 L 179.535156 324.695312 L 179.941406 324.839844 L 180.21875 324.953125 L 180.570312 325.15625 L 180.816406 325.324219 L 181.128906 325.582031 L 181.351562 325.808594 L 181.558594 326.066406 L 181.707031 326.324219 L 181.90625 326.699219 L 182.023438 326.957031 L 182.113281 327.238281 L 182.167969 327.535156 L 182.242188 328.015625 L 182.261719 328.3125 L 182.242188 328.628906 L 182.1875 328.945312 L 182.074219 329.371094 L 181.945312 329.648438 L 181.777344 329.929688 L 181.578125 330.167969 L 181.128906 330.613281 L 181.074219 330.746094 L 181.128906 330.894531 L 181.296875 331.0625 L 181.519531 331.265625 L 181.742188 331.507812 L 181.835938 331.65625 L 182.023438 331.914062 L 182.1875 332.191406 L 182.316406 332.472656 L 182.390625 332.640625 L 182.484375 332.9375 L 182.558594 333.253906 L 182.597656 333.570312 L 182.613281 333.738281 " fill-opacity="1" fill-rule="nonzero"/><path fill="#ffffff" d="M 188.453125 334.867188 L 188.453125 335.167969 L 188.375 336.167969 L 188.375 336.464844 L 188.363281 337.484375 L 188.363281 337.691406 L 188.304688 337.800781 L 188.15625 337.839844 L 187.898438 337.859375 L 186.949219 337.839844 L 185.804688 337.839844 L 184.875 337.765625 L 184.757812 337.726562 L 184.707031 337.671875 L 184.707031 337.484375 L 184.667969 337.023438 L 184.667969 336.726562 L 184.652344 336.445312 L 184.652344 336.167969 L 184.597656 335.167969 L 184.613281 334.867188 L 184.667969 333.867188 L 184.6875 333.570312 L 184.628906 332.546875 L 184.628906 332.25 L 184.613281 331.246094 L 184.613281 329.648438 L 184.597656 328.628906 L 184.597656 328.332031 L 184.613281 327.328125 L 184.613281 325.730469 L 184.578125 324.710938 L 184.628906 324.507812 L 184.746094 324.429688 L 184.925781 324.414062 L 185.074219 324.414062 L 185.355469 324.394531 L 185.804688 324.414062 L 186.097656 324.414062 L 186.949219 324.378906 L 188.101562 324.378906 L 188.304688 324.414062 L 188.34375 324.523438 L 188.363281 324.730469 L 188.398438 325.214844 L 188.414062 325.511719 L 188.414062 327.328125 L 188.433594 328.332031 L 188.433594 328.628906 L 188.414062 329.648438 L 188.414062 329.949219 L 188.433594 330.949219 L 188.433594 331.246094 L 188.398438 332.25 L 188.398438 333.867188 L 188.453125 334.867188 " fill-opacity="1" fill-rule="nonzero"/><path fill="#ffffff" d="M 203.625 330.167969 L 203.640625 330.484375 L 203.566406 331.695312 L 203.566406 333.4375 L 203.53125 334.21875 L 203.53125 335.316406 L 203.511719 335.515625 L 203.402344 335.703125 L 203.253906 335.945312 L 203.085938 336.1875 L 202.769531 336.5 L 202.546875 336.707031 L 202.433594 336.816406 L 202.195312 336.984375 L 202.066406 337.0625 L 201.820312 337.207031 L 201.453125 337.390625 L 201.175781 337.503906 L 200.914062 337.597656 L 200.488281 337.726562 L 200.210938 337.800781 L 199.914062 337.859375 L 199.636719 337.914062 L 199.210938 337.96875 L 198.949219 338.007812 L 198.671875 338.0625 L 197.929688 338.15625 L 197.652344 338.175781 L 197.074219 338.136719 L 196.652344 338.097656 L 196.355469 338.0625 L 196.058594 338.007812 L 195.777344 337.929688 L 195.128906 337.746094 L 194.851562 337.671875 L 194.570312 337.578125 L 194.203125 337.449219 L 193.960938 337.320312 L 193.589844 337.113281 L 193.363281 336.945312 L 193.125 336.78125 L 192.902344 336.59375 L 192.679688 336.429688 L 192.472656 336.242188 L 192.179688 335.945312 L 191.996094 335.722656 L 191.789062 335.445312 L 191.621094 335.183594 L 191.160156 334.347656 L 191.03125 334.050781 L 190.898438 333.769531 L 190.804688 333.476562 L 190.714844 333.160156 L 190.65625 332.863281 L 190.601562 332.546875 L 190.566406 332.25 L 190.488281 331.84375 L 190.457031 331.542969 L 190.4375 331.265625 L 190.4375 330.988281 L 190.488281 330.148438 L 190.527344 330 L 190.585938 329.6875 L 190.65625 329.371094 L 190.753906 329.074219 L 190.84375 328.757812 L 190.9375 328.460938 L 191.03125 328.183594 L 191.160156 327.886719 L 191.289062 327.570312 L 191.417969 327.308594 L 191.660156 326.972656 L 191.828125 326.753906 L 192.03125 326.511719 L 192.234375 326.289062 L 192.457031 326.085938 L 192.941406 325.679688 L 193.183594 325.492188 L 193.402344 325.324219 L 193.628906 325.175781 L 194.242188 324.824219 L 194.515625 324.65625 L 194.832031 324.523438 L 195.148438 324.429688 L 195.445312 324.359375 L 196.128906 324.246094 L 196.667969 324.171875 L 196.945312 324.113281 L 197.222656 324.082031 L 197.652344 324.042969 L 197.949219 324.023438 L 198.355469 324.0625 L 198.636719 324.082031 L 199.0625 324.132812 L 199.320312 324.191406 L 199.726562 324.265625 L 200.007812 324.339844 L 200.417969 324.46875 L 200.695312 324.5625 L 201.359375 324.898438 L 201.640625 325.0625 L 201.878906 325.230469 L 201.96875 325.285156 L 202.175781 325.414062 L 202.382812 325.5625 L 202.472656 325.660156 L 202.679688 325.808594 L 202.789062 325.898438 L 202.898438 326.027344 L 202.898438 326.160156 L 202.847656 326.289062 L 202.734375 326.457031 L 202.566406 326.699219 L 202.382812 326.902344 L 201.859375 327.421875 L 201.527344 327.71875 L 201.304688 327.902344 L 201.101562 328.054688 L 200.953125 328.164062 L 200.839844 328.238281 L 200.695312 328.257812 L 200.488281 328.128906 L 200.25 327.960938 L 200.007812 327.8125 L 199.746094 327.664062 L 199.449219 327.535156 L 199.152344 327.421875 L 198.839844 327.347656 L 198.519531 327.289062 L 197.652344 327.238281 L 197.519531 327.238281 L 197.222656 327.257812 L 196.742188 327.289062 L 196.445312 327.367188 L 195.890625 327.625 L 195.644531 327.792969 L 195.40625 327.976562 L 195.203125 328.183594 L 195.015625 328.421875 L 194.851562 328.667969 L 194.703125 328.925781 L 194.589844 329.203125 L 194.496094 329.5 L 194.421875 329.78125 L 194.3125 330.335938 L 194.257812 330.632812 L 194.242188 330.949219 L 194.242188 331.265625 L 194.273438 331.710938 L 194.332031 332.011719 L 194.421875 332.4375 L 194.515625 332.730469 L 194.703125 333.175781 L 194.832031 333.4375 L 195.054688 333.769531 L 195.238281 333.996094 L 195.574219 334.3125 L 195.8125 334.496094 L 196.1875 334.699219 L 196.464844 334.8125 L 197.019531 334.941406 L 197.335938 334.980469 L 197.652344 335 L 197.949219 335 L 198.242188 334.960938 L 198.519531 334.902344 L 199.527344 334.664062 L 199.820312 334.550781 L 200.101562 334.421875 L 200.289062 334.292969 L 200.339844 334.183594 L 200.339844 333.976562 L 200.359375 333.808594 L 200.359375 333.53125 L 200.320312 332.972656 L 200.320312 332.65625 L 200.25 332.546875 L 200.042969 332.507812 L 199.597656 332.507812 L 199.300781 332.527344 L 198.875 332.585938 L 198.578125 332.605469 L 198.152344 332.605469 L 197.855469 332.585938 L 197.222656 332.472656 L 197.113281 332.4375 L 197.039062 332.339844 L 197 332.121094 L 196.980469 331.972656 L 196.96875 331.675781 L 196.980469 331.210938 L 196.945312 330.652344 L 196.910156 330.375 L 196.910156 329.984375 L 196.96875 329.78125 L 197.058594 329.6875 L 197.28125 329.648438 L 197.742188 329.59375 L 198.058594 329.578125 L 198.914062 329.578125 L 200.117188 329.519531 L 201.601562 329.613281 L 201.898438 329.613281 L 202.660156 329.519531 L 202.957031 329.5 L 203.105469 329.519531 L 203.382812 329.578125 L 203.511719 329.648438 L 203.550781 329.761719 L 203.605469 330.019531 L 203.625 330.167969 " fill-opacity="1" fill-rule="nonzero"/></svg>